%TF.GenerationSoftware,KiCad,Pcbnew,9.0.1-9.0.1-0~ubuntu24.04.1*%
%TF.CreationDate,2025-05-08T14:38:07+02:00*%
%TF.ProjectId,MP1584-5V,4d503135-3834-42d3-9556-2e6b69636164,rev?*%
%TF.SameCoordinates,Original*%
%TF.FileFunction,Drillmap*%
%TF.FilePolarity,Positive*%
%FSLAX45Y45*%
G04 Gerber Fmt 4.5, Leading zero omitted, Abs format (unit mm)*
G04 Created by KiCad (PCBNEW 9.0.1-9.0.1-0~ubuntu24.04.1) date 2025-05-08 14:38:07*
%MOMM*%
%LPD*%
G01*
G04 APERTURE LIST*
%ADD10C,0.050000*%
%ADD11C,0.200000*%
G04 APERTURE END LIST*
D10*
X15597500Y-10900000D02*
G75*
G02*
X15347500Y-10650000I0J250000D01*
G01*
X15347500Y-8350000D02*
G75*
G02*
X15597500Y-8100000I250000J0D01*
G01*
X17542000Y-8100000D02*
G75*
G02*
X17792000Y-8350000I0J-250000D01*
G01*
X15347500Y-10650000D02*
X15347500Y-8350000D01*
X17792000Y-10650000D02*
G75*
G02*
X17542000Y-10900000I-250000J0D01*
G01*
X15597500Y-8100000D02*
X17542000Y-8100000D01*
X17792000Y-8350000D02*
X17792000Y-10650000D01*
X17542000Y-10900000D02*
X15597500Y-10900000D01*
D11*
X15605777Y-11213984D02*
X15605777Y-11013984D01*
X15605777Y-11013984D02*
X15653396Y-11013984D01*
X15653396Y-11013984D02*
X15681967Y-11023508D01*
X15681967Y-11023508D02*
X15701015Y-11042555D01*
X15701015Y-11042555D02*
X15710539Y-11061603D01*
X15710539Y-11061603D02*
X15720062Y-11099698D01*
X15720062Y-11099698D02*
X15720062Y-11128270D01*
X15720062Y-11128270D02*
X15710539Y-11166365D01*
X15710539Y-11166365D02*
X15701015Y-11185412D01*
X15701015Y-11185412D02*
X15681967Y-11204460D01*
X15681967Y-11204460D02*
X15653396Y-11213984D01*
X15653396Y-11213984D02*
X15605777Y-11213984D01*
X15805777Y-11213984D02*
X15805777Y-11080650D01*
X15805777Y-11118746D02*
X15815301Y-11099698D01*
X15815301Y-11099698D02*
X15824824Y-11090174D01*
X15824824Y-11090174D02*
X15843872Y-11080650D01*
X15843872Y-11080650D02*
X15862920Y-11080650D01*
X15929586Y-11213984D02*
X15929586Y-11080650D01*
X15929586Y-11013984D02*
X15920062Y-11023508D01*
X15920062Y-11023508D02*
X15929586Y-11033031D01*
X15929586Y-11033031D02*
X15939110Y-11023508D01*
X15939110Y-11023508D02*
X15929586Y-11013984D01*
X15929586Y-11013984D02*
X15929586Y-11033031D01*
X16053396Y-11213984D02*
X16034348Y-11204460D01*
X16034348Y-11204460D02*
X16024824Y-11185412D01*
X16024824Y-11185412D02*
X16024824Y-11013984D01*
X16158158Y-11213984D02*
X16139110Y-11204460D01*
X16139110Y-11204460D02*
X16129586Y-11185412D01*
X16129586Y-11185412D02*
X16129586Y-11013984D01*
X16386729Y-11213984D02*
X16386729Y-11013984D01*
X16386729Y-11013984D02*
X16453396Y-11156841D01*
X16453396Y-11156841D02*
X16520062Y-11013984D01*
X16520062Y-11013984D02*
X16520062Y-11213984D01*
X16701015Y-11213984D02*
X16701015Y-11109222D01*
X16701015Y-11109222D02*
X16691491Y-11090174D01*
X16691491Y-11090174D02*
X16672443Y-11080650D01*
X16672443Y-11080650D02*
X16634348Y-11080650D01*
X16634348Y-11080650D02*
X16615301Y-11090174D01*
X16701015Y-11204460D02*
X16681967Y-11213984D01*
X16681967Y-11213984D02*
X16634348Y-11213984D01*
X16634348Y-11213984D02*
X16615301Y-11204460D01*
X16615301Y-11204460D02*
X16605777Y-11185412D01*
X16605777Y-11185412D02*
X16605777Y-11166365D01*
X16605777Y-11166365D02*
X16615301Y-11147317D01*
X16615301Y-11147317D02*
X16634348Y-11137793D01*
X16634348Y-11137793D02*
X16681967Y-11137793D01*
X16681967Y-11137793D02*
X16701015Y-11128270D01*
X16796253Y-11080650D02*
X16796253Y-11280650D01*
X16796253Y-11090174D02*
X16815301Y-11080650D01*
X16815301Y-11080650D02*
X16853396Y-11080650D01*
X16853396Y-11080650D02*
X16872444Y-11090174D01*
X16872444Y-11090174D02*
X16881967Y-11099698D01*
X16881967Y-11099698D02*
X16891491Y-11118746D01*
X16891491Y-11118746D02*
X16891491Y-11175889D01*
X16891491Y-11175889D02*
X16881967Y-11194936D01*
X16881967Y-11194936D02*
X16872444Y-11204460D01*
X16872444Y-11204460D02*
X16853396Y-11213984D01*
X16853396Y-11213984D02*
X16815301Y-11213984D01*
X16815301Y-11213984D02*
X16796253Y-11204460D01*
X16977205Y-11194936D02*
X16986729Y-11204460D01*
X16986729Y-11204460D02*
X16977205Y-11213984D01*
X16977205Y-11213984D02*
X16967682Y-11204460D01*
X16967682Y-11204460D02*
X16977205Y-11194936D01*
X16977205Y-11194936D02*
X16977205Y-11213984D01*
X16977205Y-11090174D02*
X16986729Y-11099698D01*
X16986729Y-11099698D02*
X16977205Y-11109222D01*
X16977205Y-11109222D02*
X16967682Y-11099698D01*
X16967682Y-11099698D02*
X16977205Y-11090174D01*
X16977205Y-11090174D02*
X16977205Y-11109222D01*
M02*
