G04 #@! TF.GenerationSoftware,KiCad,Pcbnew,9.0.1-9.0.1-0~ubuntu24.04.1*
G04 #@! TF.CreationDate,2025-05-08T14:48:16+02:00*
G04 #@! TF.ProjectId,MP1584-5V,4d503135-3834-42d3-9556-2e6b69636164,rev?*
G04 #@! TF.SameCoordinates,Original*
G04 #@! TF.FileFunction,Legend,Top*
G04 #@! TF.FilePolarity,Positive*
%FSLAX46Y46*%
G04 Gerber Fmt 4.6, Leading zero omitted, Abs format (unit mm)*
G04 Created by KiCad (PCBNEW 9.0.1-9.0.1-0~ubuntu24.04.1) date 2025-05-08 14:48:16*
%MOMM*%
%LPD*%
G01*
G04 APERTURE LIST*
G04 Aperture macros list*
%AMRoundRect*
0 Rectangle with rounded corners*
0 $1 Rounding radius*
0 $2 $3 $4 $5 $6 $7 $8 $9 X,Y pos of 4 corners*
0 Add a 4 corners polygon primitive as box body*
4,1,4,$2,$3,$4,$5,$6,$7,$8,$9,$2,$3,0*
0 Add four circle primitives for the rounded corners*
1,1,$1+$1,$2,$3*
1,1,$1+$1,$4,$5*
1,1,$1+$1,$6,$7*
1,1,$1+$1,$8,$9*
0 Add four rect primitives between the rounded corners*
20,1,$1+$1,$2,$3,$4,$5,0*
20,1,$1+$1,$4,$5,$6,$7,0*
20,1,$1+$1,$6,$7,$8,$9,0*
20,1,$1+$1,$8,$9,$2,$3,0*%
G04 Aperture macros list end*
%ADD10C,0.100000*%
%ADD11C,0.150000*%
%ADD12C,0.200000*%
%ADD13C,0.120000*%
%ADD14RoundRect,0.201000X-0.749000X-0.469000X0.749000X-0.469000X0.749000X0.469000X-0.749000X0.469000X0*%
%ADD15RoundRect,0.200000X0.200000X0.275000X-0.200000X0.275000X-0.200000X-0.275000X0.200000X-0.275000X0*%
%ADD16RoundRect,0.250000X0.750000X-0.600000X0.750000X0.600000X-0.750000X0.600000X-0.750000X-0.600000X0*%
%ADD17O,2.000000X1.700000*%
%ADD18RoundRect,0.225000X-0.225000X-0.250000X0.225000X-0.250000X0.225000X0.250000X-0.225000X0.250000X0*%
%ADD19RoundRect,0.200000X0.275000X-0.200000X0.275000X0.200000X-0.275000X0.200000X-0.275000X-0.200000X0*%
%ADD20RoundRect,0.200000X-0.200000X-0.275000X0.200000X-0.275000X0.200000X0.275000X-0.200000X0.275000X0*%
%ADD21RoundRect,0.330000X0.770000X-2.170000X0.770000X2.170000X-0.770000X2.170000X-0.770000X-2.170000X0*%
%ADD22RoundRect,0.250000X-0.750000X0.600000X-0.750000X-0.600000X0.750000X-0.600000X0.750000X0.600000X0*%
%ADD23RoundRect,0.225000X0.250000X-0.225000X0.250000X0.225000X-0.250000X0.225000X-0.250000X-0.225000X0*%
%ADD24RoundRect,0.250000X0.250000X0.475000X-0.250000X0.475000X-0.250000X-0.475000X0.250000X-0.475000X0*%
%ADD25RoundRect,0.152500X-0.152500X0.647500X-0.152500X-0.647500X0.152500X-0.647500X0.152500X0.647500X0*%
%ADD26RoundRect,0.250000X-1.475000X-1.030000X1.475000X-1.030000X1.475000X1.030000X-1.475000X1.030000X0*%
G04 APERTURE END LIST*
D10*
X168362580Y-97331905D02*
X169362580Y-97331905D01*
X169362580Y-97331905D02*
X169362580Y-97570000D01*
X169362580Y-97570000D02*
X169314961Y-97712857D01*
X169314961Y-97712857D02*
X169219723Y-97808095D01*
X169219723Y-97808095D02*
X169124485Y-97855714D01*
X169124485Y-97855714D02*
X168934009Y-97903333D01*
X168934009Y-97903333D02*
X168791152Y-97903333D01*
X168791152Y-97903333D02*
X168600676Y-97855714D01*
X168600676Y-97855714D02*
X168505438Y-97808095D01*
X168505438Y-97808095D02*
X168410200Y-97712857D01*
X168410200Y-97712857D02*
X168362580Y-97570000D01*
X168362580Y-97570000D02*
X168362580Y-97331905D01*
X168362580Y-98855714D02*
X168362580Y-98284286D01*
X168362580Y-98570000D02*
X169362580Y-98570000D01*
X169362580Y-98570000D02*
X169219723Y-98474762D01*
X169219723Y-98474762D02*
X169124485Y-98379524D01*
X169124485Y-98379524D02*
X169076866Y-98284286D01*
D11*
X155983333Y-83494819D02*
X155650000Y-83018628D01*
X155411905Y-83494819D02*
X155411905Y-82494819D01*
X155411905Y-82494819D02*
X155792857Y-82494819D01*
X155792857Y-82494819D02*
X155888095Y-82542438D01*
X155888095Y-82542438D02*
X155935714Y-82590057D01*
X155935714Y-82590057D02*
X155983333Y-82685295D01*
X155983333Y-82685295D02*
X155983333Y-82828152D01*
X155983333Y-82828152D02*
X155935714Y-82923390D01*
X155935714Y-82923390D02*
X155888095Y-82971009D01*
X155888095Y-82971009D02*
X155792857Y-83018628D01*
X155792857Y-83018628D02*
X155411905Y-83018628D01*
X156316667Y-82494819D02*
X156935714Y-82494819D01*
X156935714Y-82494819D02*
X156602381Y-82875771D01*
X156602381Y-82875771D02*
X156745238Y-82875771D01*
X156745238Y-82875771D02*
X156840476Y-82923390D01*
X156840476Y-82923390D02*
X156888095Y-82971009D01*
X156888095Y-82971009D02*
X156935714Y-83066247D01*
X156935714Y-83066247D02*
X156935714Y-83304342D01*
X156935714Y-83304342D02*
X156888095Y-83399580D01*
X156888095Y-83399580D02*
X156840476Y-83447200D01*
X156840476Y-83447200D02*
X156745238Y-83494819D01*
X156745238Y-83494819D02*
X156459524Y-83494819D01*
X156459524Y-83494819D02*
X156364286Y-83447200D01*
X156364286Y-83447200D02*
X156316667Y-83399580D01*
X158503333Y-98154819D02*
X158170000Y-97678628D01*
X157931905Y-98154819D02*
X157931905Y-97154819D01*
X157931905Y-97154819D02*
X158312857Y-97154819D01*
X158312857Y-97154819D02*
X158408095Y-97202438D01*
X158408095Y-97202438D02*
X158455714Y-97250057D01*
X158455714Y-97250057D02*
X158503333Y-97345295D01*
X158503333Y-97345295D02*
X158503333Y-97488152D01*
X158503333Y-97488152D02*
X158455714Y-97583390D01*
X158455714Y-97583390D02*
X158408095Y-97631009D01*
X158408095Y-97631009D02*
X158312857Y-97678628D01*
X158312857Y-97678628D02*
X157931905Y-97678628D01*
X159360476Y-97154819D02*
X159170000Y-97154819D01*
X159170000Y-97154819D02*
X159074762Y-97202438D01*
X159074762Y-97202438D02*
X159027143Y-97250057D01*
X159027143Y-97250057D02*
X158931905Y-97392914D01*
X158931905Y-97392914D02*
X158884286Y-97583390D01*
X158884286Y-97583390D02*
X158884286Y-97964342D01*
X158884286Y-97964342D02*
X158931905Y-98059580D01*
X158931905Y-98059580D02*
X158979524Y-98107200D01*
X158979524Y-98107200D02*
X159074762Y-98154819D01*
X159074762Y-98154819D02*
X159265238Y-98154819D01*
X159265238Y-98154819D02*
X159360476Y-98107200D01*
X159360476Y-98107200D02*
X159408095Y-98059580D01*
X159408095Y-98059580D02*
X159455714Y-97964342D01*
X159455714Y-97964342D02*
X159455714Y-97726247D01*
X159455714Y-97726247D02*
X159408095Y-97631009D01*
X159408095Y-97631009D02*
X159360476Y-97583390D01*
X159360476Y-97583390D02*
X159265238Y-97535771D01*
X159265238Y-97535771D02*
X159074762Y-97535771D01*
X159074762Y-97535771D02*
X158979524Y-97583390D01*
X158979524Y-97583390D02*
X158931905Y-97631009D01*
X158931905Y-97631009D02*
X158884286Y-97726247D01*
X163323333Y-85324819D02*
X162990000Y-84848628D01*
X162751905Y-85324819D02*
X162751905Y-84324819D01*
X162751905Y-84324819D02*
X163132857Y-84324819D01*
X163132857Y-84324819D02*
X163228095Y-84372438D01*
X163228095Y-84372438D02*
X163275714Y-84420057D01*
X163275714Y-84420057D02*
X163323333Y-84515295D01*
X163323333Y-84515295D02*
X163323333Y-84658152D01*
X163323333Y-84658152D02*
X163275714Y-84753390D01*
X163275714Y-84753390D02*
X163228095Y-84801009D01*
X163228095Y-84801009D02*
X163132857Y-84848628D01*
X163132857Y-84848628D02*
X162751905Y-84848628D01*
X164228095Y-84324819D02*
X163751905Y-84324819D01*
X163751905Y-84324819D02*
X163704286Y-84801009D01*
X163704286Y-84801009D02*
X163751905Y-84753390D01*
X163751905Y-84753390D02*
X163847143Y-84705771D01*
X163847143Y-84705771D02*
X164085238Y-84705771D01*
X164085238Y-84705771D02*
X164180476Y-84753390D01*
X164180476Y-84753390D02*
X164228095Y-84801009D01*
X164228095Y-84801009D02*
X164275714Y-84896247D01*
X164275714Y-84896247D02*
X164275714Y-85134342D01*
X164275714Y-85134342D02*
X164228095Y-85229580D01*
X164228095Y-85229580D02*
X164180476Y-85277200D01*
X164180476Y-85277200D02*
X164085238Y-85324819D01*
X164085238Y-85324819D02*
X163847143Y-85324819D01*
X163847143Y-85324819D02*
X163751905Y-85277200D01*
X163751905Y-85277200D02*
X163704286Y-85229580D01*
X164264166Y-105054819D02*
X164264166Y-105769104D01*
X164264166Y-105769104D02*
X164216547Y-105911961D01*
X164216547Y-105911961D02*
X164121309Y-106007200D01*
X164121309Y-106007200D02*
X163978452Y-106054819D01*
X163978452Y-106054819D02*
X163883214Y-106054819D01*
X165264166Y-106054819D02*
X164692738Y-106054819D01*
X164978452Y-106054819D02*
X164978452Y-105054819D01*
X164978452Y-105054819D02*
X164883214Y-105197676D01*
X164883214Y-105197676D02*
X164787976Y-105292914D01*
X164787976Y-105292914D02*
X164692738Y-105340533D01*
X161803333Y-99739580D02*
X161755714Y-99787200D01*
X161755714Y-99787200D02*
X161612857Y-99834819D01*
X161612857Y-99834819D02*
X161517619Y-99834819D01*
X161517619Y-99834819D02*
X161374762Y-99787200D01*
X161374762Y-99787200D02*
X161279524Y-99691961D01*
X161279524Y-99691961D02*
X161231905Y-99596723D01*
X161231905Y-99596723D02*
X161184286Y-99406247D01*
X161184286Y-99406247D02*
X161184286Y-99263390D01*
X161184286Y-99263390D02*
X161231905Y-99072914D01*
X161231905Y-99072914D02*
X161279524Y-98977676D01*
X161279524Y-98977676D02*
X161374762Y-98882438D01*
X161374762Y-98882438D02*
X161517619Y-98834819D01*
X161517619Y-98834819D02*
X161612857Y-98834819D01*
X161612857Y-98834819D02*
X161755714Y-98882438D01*
X161755714Y-98882438D02*
X161803333Y-98930057D01*
X162755714Y-99834819D02*
X162184286Y-99834819D01*
X162470000Y-99834819D02*
X162470000Y-98834819D01*
X162470000Y-98834819D02*
X162374762Y-98977676D01*
X162374762Y-98977676D02*
X162279524Y-99072914D01*
X162279524Y-99072914D02*
X162184286Y-99120533D01*
X161414819Y-83236666D02*
X160938628Y-83569999D01*
X161414819Y-83808094D02*
X160414819Y-83808094D01*
X160414819Y-83808094D02*
X160414819Y-83427142D01*
X160414819Y-83427142D02*
X160462438Y-83331904D01*
X160462438Y-83331904D02*
X160510057Y-83284285D01*
X160510057Y-83284285D02*
X160605295Y-83236666D01*
X160605295Y-83236666D02*
X160748152Y-83236666D01*
X160748152Y-83236666D02*
X160843390Y-83284285D01*
X160843390Y-83284285D02*
X160891009Y-83331904D01*
X160891009Y-83331904D02*
X160938628Y-83427142D01*
X160938628Y-83427142D02*
X160938628Y-83808094D01*
X160748152Y-82379523D02*
X161414819Y-82379523D01*
X160367200Y-82617618D02*
X161081485Y-82855713D01*
X161081485Y-82855713D02*
X161081485Y-82236666D01*
X155054819Y-88576666D02*
X154578628Y-88909999D01*
X155054819Y-89148094D02*
X154054819Y-89148094D01*
X154054819Y-89148094D02*
X154054819Y-88767142D01*
X154054819Y-88767142D02*
X154102438Y-88671904D01*
X154102438Y-88671904D02*
X154150057Y-88624285D01*
X154150057Y-88624285D02*
X154245295Y-88576666D01*
X154245295Y-88576666D02*
X154388152Y-88576666D01*
X154388152Y-88576666D02*
X154483390Y-88624285D01*
X154483390Y-88624285D02*
X154531009Y-88671904D01*
X154531009Y-88671904D02*
X154578628Y-88767142D01*
X154578628Y-88767142D02*
X154578628Y-89148094D01*
X154150057Y-88195713D02*
X154102438Y-88148094D01*
X154102438Y-88148094D02*
X154054819Y-88052856D01*
X154054819Y-88052856D02*
X154054819Y-87814761D01*
X154054819Y-87814761D02*
X154102438Y-87719523D01*
X154102438Y-87719523D02*
X154150057Y-87671904D01*
X154150057Y-87671904D02*
X154245295Y-87624285D01*
X154245295Y-87624285D02*
X154340533Y-87624285D01*
X154340533Y-87624285D02*
X154483390Y-87671904D01*
X154483390Y-87671904D02*
X155054819Y-88243332D01*
X155054819Y-88243332D02*
X155054819Y-87624285D01*
D10*
X175523335Y-94637419D02*
X175047145Y-94637419D01*
X175047145Y-94637419D02*
X175047145Y-93637419D01*
X176380478Y-94637419D02*
X175809050Y-94637419D01*
X176094764Y-94637419D02*
X176094764Y-93637419D01*
X176094764Y-93637419D02*
X175999526Y-93780276D01*
X175999526Y-93780276D02*
X175904288Y-93875514D01*
X175904288Y-93875514D02*
X175809050Y-93923133D01*
D11*
X166539166Y-102274819D02*
X166539166Y-102989104D01*
X166539166Y-102989104D02*
X166491547Y-103131961D01*
X166491547Y-103131961D02*
X166396309Y-103227200D01*
X166396309Y-103227200D02*
X166253452Y-103274819D01*
X166253452Y-103274819D02*
X166158214Y-103274819D01*
X166967738Y-102370057D02*
X167015357Y-102322438D01*
X167015357Y-102322438D02*
X167110595Y-102274819D01*
X167110595Y-102274819D02*
X167348690Y-102274819D01*
X167348690Y-102274819D02*
X167443928Y-102322438D01*
X167443928Y-102322438D02*
X167491547Y-102370057D01*
X167491547Y-102370057D02*
X167539166Y-102465295D01*
X167539166Y-102465295D02*
X167539166Y-102560533D01*
X167539166Y-102560533D02*
X167491547Y-102703390D01*
X167491547Y-102703390D02*
X166920119Y-103274819D01*
X166920119Y-103274819D02*
X167539166Y-103274819D01*
X159299580Y-83136666D02*
X159347200Y-83184285D01*
X159347200Y-83184285D02*
X159394819Y-83327142D01*
X159394819Y-83327142D02*
X159394819Y-83422380D01*
X159394819Y-83422380D02*
X159347200Y-83565237D01*
X159347200Y-83565237D02*
X159251961Y-83660475D01*
X159251961Y-83660475D02*
X159156723Y-83708094D01*
X159156723Y-83708094D02*
X158966247Y-83755713D01*
X158966247Y-83755713D02*
X158823390Y-83755713D01*
X158823390Y-83755713D02*
X158632914Y-83708094D01*
X158632914Y-83708094D02*
X158537676Y-83660475D01*
X158537676Y-83660475D02*
X158442438Y-83565237D01*
X158442438Y-83565237D02*
X158394819Y-83422380D01*
X158394819Y-83422380D02*
X158394819Y-83327142D01*
X158394819Y-83327142D02*
X158442438Y-83184285D01*
X158442438Y-83184285D02*
X158490057Y-83136666D01*
X158394819Y-82803332D02*
X158394819Y-82184285D01*
X158394819Y-82184285D02*
X158775771Y-82517618D01*
X158775771Y-82517618D02*
X158775771Y-82374761D01*
X158775771Y-82374761D02*
X158823390Y-82279523D01*
X158823390Y-82279523D02*
X158871009Y-82231904D01*
X158871009Y-82231904D02*
X158966247Y-82184285D01*
X158966247Y-82184285D02*
X159204342Y-82184285D01*
X159204342Y-82184285D02*
X159299580Y-82231904D01*
X159299580Y-82231904D02*
X159347200Y-82279523D01*
X159347200Y-82279523D02*
X159394819Y-82374761D01*
X159394819Y-82374761D02*
X159394819Y-82660475D01*
X159394819Y-82660475D02*
X159347200Y-82755713D01*
X159347200Y-82755713D02*
X159299580Y-82803332D01*
X163963333Y-92979580D02*
X163915714Y-93027200D01*
X163915714Y-93027200D02*
X163772857Y-93074819D01*
X163772857Y-93074819D02*
X163677619Y-93074819D01*
X163677619Y-93074819D02*
X163534762Y-93027200D01*
X163534762Y-93027200D02*
X163439524Y-92931961D01*
X163439524Y-92931961D02*
X163391905Y-92836723D01*
X163391905Y-92836723D02*
X163344286Y-92646247D01*
X163344286Y-92646247D02*
X163344286Y-92503390D01*
X163344286Y-92503390D02*
X163391905Y-92312914D01*
X163391905Y-92312914D02*
X163439524Y-92217676D01*
X163439524Y-92217676D02*
X163534762Y-92122438D01*
X163534762Y-92122438D02*
X163677619Y-92074819D01*
X163677619Y-92074819D02*
X163772857Y-92074819D01*
X163772857Y-92074819D02*
X163915714Y-92122438D01*
X163915714Y-92122438D02*
X163963333Y-92170057D01*
X164820476Y-92408152D02*
X164820476Y-93074819D01*
X164582381Y-92027200D02*
X164344286Y-92741485D01*
X164344286Y-92741485D02*
X164963333Y-92741485D01*
X172263333Y-98569580D02*
X172215714Y-98617200D01*
X172215714Y-98617200D02*
X172072857Y-98664819D01*
X172072857Y-98664819D02*
X171977619Y-98664819D01*
X171977619Y-98664819D02*
X171834762Y-98617200D01*
X171834762Y-98617200D02*
X171739524Y-98521961D01*
X171739524Y-98521961D02*
X171691905Y-98426723D01*
X171691905Y-98426723D02*
X171644286Y-98236247D01*
X171644286Y-98236247D02*
X171644286Y-98093390D01*
X171644286Y-98093390D02*
X171691905Y-97902914D01*
X171691905Y-97902914D02*
X171739524Y-97807676D01*
X171739524Y-97807676D02*
X171834762Y-97712438D01*
X171834762Y-97712438D02*
X171977619Y-97664819D01*
X171977619Y-97664819D02*
X172072857Y-97664819D01*
X172072857Y-97664819D02*
X172215714Y-97712438D01*
X172215714Y-97712438D02*
X172263333Y-97760057D01*
X172644286Y-97760057D02*
X172691905Y-97712438D01*
X172691905Y-97712438D02*
X172787143Y-97664819D01*
X172787143Y-97664819D02*
X173025238Y-97664819D01*
X173025238Y-97664819D02*
X173120476Y-97712438D01*
X173120476Y-97712438D02*
X173168095Y-97760057D01*
X173168095Y-97760057D02*
X173215714Y-97855295D01*
X173215714Y-97855295D02*
X173215714Y-97950533D01*
X173215714Y-97950533D02*
X173168095Y-98093390D01*
X173168095Y-98093390D02*
X172596667Y-98664819D01*
X172596667Y-98664819D02*
X173215714Y-98664819D01*
D10*
X157187419Y-92391904D02*
X157996942Y-92391904D01*
X157996942Y-92391904D02*
X158092180Y-92344285D01*
X158092180Y-92344285D02*
X158139800Y-92296666D01*
X158139800Y-92296666D02*
X158187419Y-92201428D01*
X158187419Y-92201428D02*
X158187419Y-92010952D01*
X158187419Y-92010952D02*
X158139800Y-91915714D01*
X158139800Y-91915714D02*
X158092180Y-91868095D01*
X158092180Y-91868095D02*
X157996942Y-91820476D01*
X157996942Y-91820476D02*
X157187419Y-91820476D01*
X158187419Y-90820476D02*
X158187419Y-91391904D01*
X158187419Y-91106190D02*
X157187419Y-91106190D01*
X157187419Y-91106190D02*
X157330276Y-91201428D01*
X157330276Y-91201428D02*
X157425514Y-91296666D01*
X157425514Y-91296666D02*
X157473133Y-91391904D01*
D11*
X156164819Y-90836666D02*
X155688628Y-91169999D01*
X156164819Y-91408094D02*
X155164819Y-91408094D01*
X155164819Y-91408094D02*
X155164819Y-91027142D01*
X155164819Y-91027142D02*
X155212438Y-90931904D01*
X155212438Y-90931904D02*
X155260057Y-90884285D01*
X155260057Y-90884285D02*
X155355295Y-90836666D01*
X155355295Y-90836666D02*
X155498152Y-90836666D01*
X155498152Y-90836666D02*
X155593390Y-90884285D01*
X155593390Y-90884285D02*
X155641009Y-90931904D01*
X155641009Y-90931904D02*
X155688628Y-91027142D01*
X155688628Y-91027142D02*
X155688628Y-91408094D01*
X156164819Y-89884285D02*
X156164819Y-90455713D01*
X156164819Y-90169999D02*
X155164819Y-90169999D01*
X155164819Y-90169999D02*
X155307676Y-90265237D01*
X155307676Y-90265237D02*
X155402914Y-90360475D01*
X155402914Y-90360475D02*
X155450533Y-90455713D01*
D10*
X165510000Y-96135000D02*
X165510000Y-100085000D01*
X165510000Y-100085000D02*
X165510000Y-96135000D01*
X165510000Y-100085000D02*
X165750000Y-100085000D01*
X165740000Y-96135000D02*
X165510000Y-96135000D01*
X167770000Y-96135000D02*
X168010000Y-96135000D01*
X168010000Y-100085000D02*
X167770000Y-100085000D01*
X168010000Y-100085000D02*
X168010000Y-96135000D01*
D12*
X168462195Y-95937805D02*
G75*
G02*
X168277805Y-95937805I-92195J0D01*
G01*
X168277805Y-95937805D02*
G75*
G02*
X168462195Y-95937805I92195J0D01*
G01*
D13*
X156387258Y-83867500D02*
X155912742Y-83867500D01*
X156387258Y-84912500D02*
X155912742Y-84912500D01*
X158927258Y-95697500D02*
X158452742Y-95697500D01*
X158927258Y-96742500D02*
X158452742Y-96742500D01*
X163727258Y-85857500D02*
X163252742Y-85857500D01*
X163727258Y-86902500D02*
X163252742Y-86902500D01*
X154620000Y-100350000D02*
X163040000Y-100350000D01*
X154620000Y-108070000D02*
X154620000Y-100350000D01*
X155840000Y-100350000D02*
X155840000Y-101570000D01*
X155840000Y-101570000D02*
X160840000Y-101570000D01*
X155840000Y-106850000D02*
X160840000Y-106850000D01*
X155840000Y-108070000D02*
X155840000Y-106850000D01*
X156340000Y-102960000D02*
X156420000Y-102640000D01*
X156340000Y-105460000D02*
X156420000Y-105140000D01*
X156420000Y-102640000D02*
X159840000Y-102640000D01*
X156420000Y-103280000D02*
X156340000Y-102960000D01*
X156420000Y-105140000D02*
X159840000Y-105140000D01*
X156420000Y-105780000D02*
X156340000Y-105460000D01*
X159840000Y-102640000D02*
X159840000Y-102960000D01*
X159840000Y-102960000D02*
X159840000Y-103280000D01*
X159840000Y-103280000D02*
X156420000Y-103280000D01*
X159840000Y-105140000D02*
X159840000Y-105460000D01*
X159840000Y-105460000D02*
X159840000Y-105780000D01*
X159840000Y-105780000D02*
X156420000Y-105780000D01*
X159840000Y-106850000D02*
X159840000Y-101570000D01*
X160840000Y-101570000D02*
X160840000Y-100350000D01*
X160840000Y-104290000D02*
X160840000Y-104130000D01*
X160840000Y-106850000D02*
X160840000Y-108070000D01*
X160840000Y-106850000D02*
X163040000Y-106850000D01*
X162930000Y-105460000D02*
X163530000Y-105760000D01*
X163040000Y-100350000D02*
X163040000Y-101570000D01*
X163040000Y-101570000D02*
X160840000Y-101570000D01*
X163040000Y-106850000D02*
X163040000Y-108070000D01*
X163040000Y-108070000D02*
X154620000Y-108070000D01*
X163530000Y-105160000D02*
X162930000Y-105460000D01*
X163530000Y-105760000D02*
X163530000Y-105160000D01*
X161849420Y-97520000D02*
X162130580Y-97520000D01*
X161849420Y-98540000D02*
X162130580Y-98540000D01*
X160447500Y-85877258D02*
X160447500Y-85402742D01*
X161492500Y-85877258D02*
X161492500Y-85402742D01*
X155912742Y-86187500D02*
X156387258Y-86187500D01*
X155912742Y-87232500D02*
X156387258Y-87232500D01*
D10*
X165440000Y-83190000D02*
X165440000Y-91490002D01*
X167289998Y-93340000D02*
X175690002Y-93340000D01*
X167290000Y-81340000D02*
X175690000Y-81340000D01*
X177540000Y-91490000D02*
X177540000Y-83190000D01*
X165440000Y-83190000D02*
G75*
G02*
X167290000Y-81340000I1850000J0D01*
G01*
X167290000Y-93340000D02*
G75*
G02*
X165440000Y-91490000I-2J1849998D01*
G01*
X175690000Y-81340000D02*
G75*
G02*
X177540000Y-83190000I0J-1850000D01*
G01*
X177540000Y-91490000D02*
G75*
G02*
X175690000Y-93340000I-1849998J-2D01*
G01*
D13*
X168230000Y-102570000D02*
X168230000Y-103170000D01*
X168230000Y-103170000D02*
X168830000Y-102870000D01*
X168720000Y-100260000D02*
X177140000Y-100260000D01*
X168720000Y-101480000D02*
X168720000Y-100260000D01*
X168720000Y-106760000D02*
X170920000Y-106760000D01*
X168720000Y-107980000D02*
X168720000Y-106760000D01*
X168830000Y-102870000D02*
X168230000Y-102570000D01*
X170920000Y-101480000D02*
X168720000Y-101480000D01*
X170920000Y-101480000D02*
X170920000Y-100260000D01*
X170920000Y-104040000D02*
X170920000Y-104200000D01*
X170920000Y-106760000D02*
X170920000Y-107980000D01*
X171920000Y-101480000D02*
X171920000Y-106760000D01*
X171920000Y-102550000D02*
X175340000Y-102550000D01*
X171920000Y-102870000D02*
X171920000Y-102550000D01*
X171920000Y-103190000D02*
X171920000Y-102870000D01*
X171920000Y-105050000D02*
X175340000Y-105050000D01*
X171920000Y-105370000D02*
X171920000Y-105050000D01*
X171920000Y-105690000D02*
X171920000Y-105370000D01*
X175340000Y-102550000D02*
X175420000Y-102870000D01*
X175340000Y-103190000D02*
X171920000Y-103190000D01*
X175340000Y-105050000D02*
X175420000Y-105370000D01*
X175340000Y-105690000D02*
X171920000Y-105690000D01*
X175420000Y-102870000D02*
X175340000Y-103190000D01*
X175420000Y-105370000D02*
X175340000Y-105690000D01*
X175920000Y-100260000D02*
X175920000Y-101480000D01*
X175920000Y-101480000D02*
X170920000Y-101480000D01*
X175920000Y-106760000D02*
X170920000Y-106760000D01*
X175920000Y-107980000D02*
X175920000Y-106760000D01*
X177140000Y-100260000D02*
X177140000Y-107980000D01*
X177140000Y-107980000D02*
X168720000Y-107980000D01*
X158440000Y-85790580D02*
X158440000Y-85509420D01*
X159460000Y-85790580D02*
X159460000Y-85509420D01*
X164699420Y-93540000D02*
X164980580Y-93540000D01*
X164699420Y-94560000D02*
X164980580Y-94560000D01*
X172711252Y-95455000D02*
X172188748Y-95455000D01*
X172711252Y-96925000D02*
X172188748Y-96925000D01*
D10*
X158790000Y-93470000D02*
X158790000Y-89830000D01*
X159680000Y-89350000D02*
X159150000Y-89350000D01*
X159680000Y-93950000D02*
X159150000Y-93950000D01*
X160950000Y-89350000D02*
X160420000Y-89350000D01*
X160950000Y-93950000D02*
X160420000Y-93950000D01*
X162220000Y-89350000D02*
X161690000Y-89350000D01*
X162220000Y-93950000D02*
X161680000Y-93950000D01*
X162590000Y-93470000D02*
X162590000Y-89820000D01*
D12*
X163340000Y-90175000D02*
G75*
G02*
X163140000Y-90175000I-100000J0D01*
G01*
X163140000Y-90175000D02*
G75*
G02*
X163340000Y-90175000I100000J0D01*
G01*
D13*
X156517500Y-89337258D02*
X156517500Y-88862742D01*
X157562500Y-89337258D02*
X157562500Y-88862742D01*
%LPC*%
D14*
X166760000Y-96010000D03*
X166760000Y-100170000D03*
D15*
X156975000Y-84390000D03*
X155325000Y-84390000D03*
X159515000Y-96220000D03*
X157865000Y-96220000D03*
X164315000Y-86380000D03*
X162665000Y-86380000D03*
D16*
X161430000Y-105460000D03*
D17*
X161430000Y-102960000D03*
D18*
X161215000Y-98030000D03*
X162765000Y-98030000D03*
D19*
X160970000Y-86465000D03*
X160970000Y-84815000D03*
D20*
X155325000Y-86710000D03*
X156975000Y-86710000D03*
D21*
X166590000Y-87340000D03*
X176390000Y-87340000D03*
D22*
X170330000Y-102870000D03*
D17*
X170330000Y-105370000D03*
D23*
X158950000Y-86425000D03*
X158950000Y-84875000D03*
D18*
X164065000Y-94050000D03*
X165615000Y-94050000D03*
D24*
X173400000Y-96190000D03*
X171500000Y-96190000D03*
D25*
X162590000Y-88950000D03*
X161320000Y-88950000D03*
X160050000Y-88950000D03*
X158780000Y-88950000D03*
X158780000Y-94350000D03*
X160050000Y-94350000D03*
X161320000Y-94350000D03*
X162590000Y-94350000D03*
D26*
X160685000Y-91650000D03*
D19*
X157040000Y-89925000D03*
X157040000Y-88275000D03*
%LPD*%
M02*
