G04 #@! TF.GenerationSoftware,KiCad,Pcbnew,9.0.1-9.0.1-0~ubuntu24.04.1*
G04 #@! TF.CreationDate,2025-05-08T14:48:16+02:00*
G04 #@! TF.ProjectId,MP1584-5V,4d503135-3834-42d3-9556-2e6b69636164,rev?*
G04 #@! TF.SameCoordinates,Original*
G04 #@! TF.FileFunction,Copper,L2,Bot*
G04 #@! TF.FilePolarity,Positive*
%FSLAX46Y46*%
G04 Gerber Fmt 4.6, Leading zero omitted, Abs format (unit mm)*
G04 Created by KiCad (PCBNEW 9.0.1-9.0.1-0~ubuntu24.04.1) date 2025-05-08 14:48:16*
%MOMM*%
%LPD*%
G01*
G04 APERTURE LIST*
G04 Aperture macros list*
%AMRoundRect*
0 Rectangle with rounded corners*
0 $1 Rounding radius*
0 $2 $3 $4 $5 $6 $7 $8 $9 X,Y pos of 4 corners*
0 Add a 4 corners polygon primitive as box body*
4,1,4,$2,$3,$4,$5,$6,$7,$8,$9,$2,$3,0*
0 Add four circle primitives for the rounded corners*
1,1,$1+$1,$2,$3*
1,1,$1+$1,$4,$5*
1,1,$1+$1,$6,$7*
1,1,$1+$1,$8,$9*
0 Add four rect primitives between the rounded corners*
20,1,$1+$1,$2,$3,$4,$5,0*
20,1,$1+$1,$4,$5,$6,$7,0*
20,1,$1+$1,$6,$7,$8,$9,0*
20,1,$1+$1,$8,$9,$2,$3,0*%
G04 Aperture macros list end*
G04 #@! TA.AperFunction,ComponentPad*
%ADD10RoundRect,0.250000X0.750000X-0.600000X0.750000X0.600000X-0.750000X0.600000X-0.750000X-0.600000X0*%
G04 #@! TD*
G04 #@! TA.AperFunction,ComponentPad*
%ADD11O,2.000000X1.700000*%
G04 #@! TD*
G04 #@! TA.AperFunction,ComponentPad*
%ADD12RoundRect,0.250000X-0.750000X0.600000X-0.750000X-0.600000X0.750000X-0.600000X0.750000X0.600000X0*%
G04 #@! TD*
G04 #@! TA.AperFunction,ViaPad*
%ADD13C,0.600000*%
G04 #@! TD*
G04 #@! TA.AperFunction,ViaPad*
%ADD14C,0.450000*%
G04 #@! TD*
G04 #@! TA.AperFunction,Conductor*
%ADD15C,0.500000*%
G04 #@! TD*
G04 APERTURE END LIST*
D10*
X161430000Y-105460000D03*
D11*
X161430000Y-102960000D03*
D12*
X170330000Y-102870000D03*
D11*
X170330000Y-105370000D03*
D13*
X164470000Y-99000000D03*
D14*
X155835000Y-108175400D03*
D13*
X161910000Y-90900000D03*
X159510000Y-92500000D03*
D14*
X154525000Y-103175000D03*
D13*
X160310000Y-92500000D03*
X159510000Y-90900000D03*
X157850000Y-91760000D03*
X170010000Y-97020000D03*
D14*
X154525000Y-93175000D03*
D13*
X157050000Y-93360000D03*
D14*
X154525000Y-83175000D03*
X162800000Y-83950000D03*
X167400000Y-108190000D03*
X156700000Y-81950000D03*
X158700000Y-81950000D03*
D13*
X157050000Y-92560000D03*
X159510000Y-91700000D03*
X170020000Y-95260000D03*
D14*
X154525000Y-95175000D03*
X154525000Y-101175000D03*
X154525000Y-97175000D03*
D13*
X160310000Y-90900000D03*
X170020000Y-96140000D03*
D14*
X154525000Y-107175000D03*
D13*
X160310000Y-91700000D03*
X164480000Y-98120000D03*
D14*
X162800000Y-81950000D03*
D13*
X161110000Y-91700000D03*
D14*
X175020000Y-108190000D03*
X172480000Y-108190000D03*
D13*
X157850000Y-93360000D03*
D14*
X154525000Y-99175000D03*
D13*
X161110000Y-90900000D03*
D14*
X160700000Y-81950000D03*
D13*
X161910000Y-92500000D03*
D14*
X158375000Y-108175400D03*
D13*
X161910000Y-91700000D03*
X161110000Y-92500000D03*
X157050000Y-91760000D03*
X157850000Y-90960000D03*
X157050000Y-90960000D03*
X157850000Y-92560000D03*
D14*
X154525000Y-89175000D03*
X169940000Y-108190000D03*
X154525000Y-91175000D03*
X154525000Y-105175000D03*
X160915000Y-108175400D03*
D13*
X164480000Y-97240000D03*
D14*
X161200000Y-96770000D03*
X164320000Y-87450000D03*
X158010000Y-89940000D03*
D15*
X155925000Y-95515000D02*
X155925000Y-88625000D01*
X161200000Y-96770000D02*
X157180000Y-96770000D01*
X157180000Y-96770000D02*
X155925000Y-95515000D01*
X157100000Y-87450000D02*
X164320000Y-87450000D01*
X155925000Y-88625000D02*
X157100000Y-87450000D01*
X167540000Y-92770000D02*
X167540000Y-100080000D01*
X167540000Y-100080000D02*
X170330000Y-102870000D01*
X164710000Y-89940000D02*
X167540000Y-92770000D01*
X158010000Y-89940000D02*
X164710000Y-89940000D01*
G04 #@! TA.AperFunction,Conductor*
G36*
X175423736Y-81250726D02*
G01*
X175683662Y-81266448D01*
X175698524Y-81268253D01*
X175769528Y-81281264D01*
X175950969Y-81314515D01*
X175965498Y-81318096D01*
X176210523Y-81394449D01*
X176224516Y-81399755D01*
X176458562Y-81505091D01*
X176471808Y-81512044D01*
X176691449Y-81644821D01*
X176703760Y-81653319D01*
X176717810Y-81664326D01*
X176905792Y-81811601D01*
X176917000Y-81821531D01*
X177098468Y-82002999D01*
X177108398Y-82014207D01*
X177266676Y-82216233D01*
X177275182Y-82228556D01*
X177407952Y-82448185D01*
X177414911Y-82461444D01*
X177520242Y-82695480D01*
X177525551Y-82709480D01*
X177601901Y-82954494D01*
X177605485Y-82969034D01*
X177651746Y-83221475D01*
X177653551Y-83236339D01*
X177669274Y-83496263D01*
X177669500Y-83503750D01*
X177669500Y-106496249D01*
X177669274Y-106503736D01*
X177653551Y-106763660D01*
X177651746Y-106778524D01*
X177605485Y-107030965D01*
X177601901Y-107045505D01*
X177525551Y-107290519D01*
X177520242Y-107304519D01*
X177414911Y-107538555D01*
X177407952Y-107551814D01*
X177275182Y-107771443D01*
X177266676Y-107783766D01*
X177108398Y-107985792D01*
X177098468Y-107997000D01*
X176917000Y-108178468D01*
X176905792Y-108188398D01*
X176703766Y-108346676D01*
X176691443Y-108355182D01*
X176471814Y-108487952D01*
X176458555Y-108494911D01*
X176224519Y-108600242D01*
X176210519Y-108605551D01*
X175965505Y-108681901D01*
X175950965Y-108685485D01*
X175698524Y-108731746D01*
X175683660Y-108733551D01*
X175423736Y-108749274D01*
X175416249Y-108749500D01*
X155978751Y-108749500D01*
X155971264Y-108749274D01*
X155711339Y-108733551D01*
X155696475Y-108731746D01*
X155444034Y-108685485D01*
X155429494Y-108681901D01*
X155184480Y-108605551D01*
X155170480Y-108600242D01*
X154936444Y-108494911D01*
X154923185Y-108487952D01*
X154703556Y-108355182D01*
X154691233Y-108346676D01*
X154489207Y-108188398D01*
X154477999Y-108178468D01*
X154296531Y-107997000D01*
X154286601Y-107985792D01*
X154128323Y-107783766D01*
X154119821Y-107771449D01*
X153987044Y-107551808D01*
X153980091Y-107538562D01*
X153874755Y-107304516D01*
X153869448Y-107290519D01*
X153793096Y-107045498D01*
X153789514Y-107030965D01*
X153776775Y-106961452D01*
X153743253Y-106778524D01*
X153741448Y-106763660D01*
X153740280Y-106744358D01*
X153725726Y-106503736D01*
X153725500Y-106496249D01*
X153725500Y-104810013D01*
X159930000Y-104810013D01*
X159930000Y-105210000D01*
X160996988Y-105210000D01*
X160964075Y-105267007D01*
X160930000Y-105394174D01*
X160930000Y-105525826D01*
X160964075Y-105652993D01*
X160996988Y-105710000D01*
X159930001Y-105710000D01*
X159930001Y-106109986D01*
X159940494Y-106212697D01*
X159995641Y-106379119D01*
X159995643Y-106379124D01*
X160087684Y-106528345D01*
X160211654Y-106652315D01*
X160360875Y-106744356D01*
X160360880Y-106744358D01*
X160527302Y-106799505D01*
X160527309Y-106799506D01*
X160630019Y-106809999D01*
X161179999Y-106809999D01*
X161180000Y-106809998D01*
X161180000Y-105893012D01*
X161237007Y-105925925D01*
X161364174Y-105960000D01*
X161495826Y-105960000D01*
X161622993Y-105925925D01*
X161680000Y-105893012D01*
X161680000Y-106809999D01*
X162229972Y-106809999D01*
X162229986Y-106809998D01*
X162332697Y-106799505D01*
X162499119Y-106744358D01*
X162499124Y-106744356D01*
X162648345Y-106652315D01*
X162772315Y-106528345D01*
X162864356Y-106379124D01*
X162864358Y-106379119D01*
X162919505Y-106212697D01*
X162919506Y-106212690D01*
X162929999Y-106109986D01*
X162930000Y-106109973D01*
X162930000Y-105710000D01*
X161863012Y-105710000D01*
X161895925Y-105652993D01*
X161930000Y-105525826D01*
X161930000Y-105394174D01*
X161895925Y-105267007D01*
X161863012Y-105210000D01*
X162929999Y-105210000D01*
X162929999Y-104810028D01*
X162929998Y-104810013D01*
X162919505Y-104707302D01*
X162864358Y-104540880D01*
X162864356Y-104540875D01*
X162772315Y-104391654D01*
X162648345Y-104267684D01*
X162499124Y-104175643D01*
X162499119Y-104175641D01*
X162332697Y-104120494D01*
X162332690Y-104120493D01*
X162229986Y-104110000D01*
X162158526Y-104110000D01*
X162091487Y-104090315D01*
X162045732Y-104037511D01*
X162035788Y-103968353D01*
X162064813Y-103904797D01*
X162089633Y-103882899D01*
X162249655Y-103775977D01*
X162395977Y-103629655D01*
X162510941Y-103457598D01*
X162590130Y-103266420D01*
X162630500Y-103063465D01*
X162630500Y-102856535D01*
X162590130Y-102653580D01*
X162510941Y-102462402D01*
X162395977Y-102290345D01*
X162395975Y-102290342D01*
X162249657Y-102144024D01*
X162119593Y-102057119D01*
X162077598Y-102029059D01*
X161886420Y-101949870D01*
X161886412Y-101949868D01*
X161683469Y-101909500D01*
X161683465Y-101909500D01*
X161176535Y-101909500D01*
X161176530Y-101909500D01*
X160973587Y-101949868D01*
X160973579Y-101949870D01*
X160782403Y-102029058D01*
X160610342Y-102144024D01*
X160464024Y-102290342D01*
X160349058Y-102462403D01*
X160269870Y-102653579D01*
X160269868Y-102653587D01*
X160229500Y-102856530D01*
X160229500Y-103063469D01*
X160269868Y-103266412D01*
X160269870Y-103266420D01*
X160349058Y-103457596D01*
X160464024Y-103629657D01*
X160610342Y-103775975D01*
X160610345Y-103775977D01*
X160770367Y-103882899D01*
X160815170Y-103936509D01*
X160823878Y-104005834D01*
X160793724Y-104068862D01*
X160734282Y-104105581D01*
X160701477Y-104110000D01*
X160630029Y-104110000D01*
X160630012Y-104110001D01*
X160527302Y-104120494D01*
X160360880Y-104175641D01*
X160360875Y-104175643D01*
X160211654Y-104267684D01*
X160087684Y-104391654D01*
X159995643Y-104540875D01*
X159995641Y-104540880D01*
X159940494Y-104707302D01*
X159940493Y-104707309D01*
X159930000Y-104810013D01*
X153725500Y-104810013D01*
X153725500Y-88565691D01*
X155474500Y-88565691D01*
X155474500Y-95574308D01*
X155498712Y-95664672D01*
X155505200Y-95688885D01*
X155505200Y-95688886D01*
X155505201Y-95688887D01*
X155564511Y-95791614D01*
X156903386Y-97130489D01*
X157006113Y-97189799D01*
X157006112Y-97189799D01*
X157018394Y-97193089D01*
X157027387Y-97195499D01*
X157027389Y-97195500D01*
X157047106Y-97200782D01*
X157120691Y-97220500D01*
X157120693Y-97220500D01*
X161259306Y-97220500D01*
X161259309Y-97220500D01*
X161373886Y-97189799D01*
X161476613Y-97130489D01*
X161560489Y-97046613D01*
X161619799Y-96943886D01*
X161650500Y-96829309D01*
X161650500Y-96710691D01*
X161619799Y-96596114D01*
X161560489Y-96493387D01*
X161476613Y-96409511D01*
X161373886Y-96350201D01*
X161259309Y-96319500D01*
X161259306Y-96319500D01*
X157417965Y-96319500D01*
X157350926Y-96299815D01*
X157330284Y-96283181D01*
X156411819Y-95364716D01*
X156378334Y-95303393D01*
X156375500Y-95277035D01*
X156375500Y-89880691D01*
X157559500Y-89880691D01*
X157559500Y-89999309D01*
X157590201Y-90113886D01*
X157649511Y-90216613D01*
X157733387Y-90300489D01*
X157836114Y-90359799D01*
X157950691Y-90390500D01*
X164472035Y-90390500D01*
X164539074Y-90410185D01*
X164559716Y-90426819D01*
X167053181Y-92920284D01*
X167086666Y-92981607D01*
X167089500Y-93007965D01*
X167089500Y-100139308D01*
X167113712Y-100229672D01*
X167120200Y-100253885D01*
X167120200Y-100253886D01*
X167120201Y-100253887D01*
X167179511Y-100356614D01*
X167179513Y-100356616D01*
X169093181Y-102270284D01*
X169126666Y-102331607D01*
X169129500Y-102357965D01*
X169129500Y-103524269D01*
X169132353Y-103554699D01*
X169132353Y-103554701D01*
X169177206Y-103682880D01*
X169177207Y-103682882D01*
X169257850Y-103792150D01*
X169367118Y-103872793D01*
X169395994Y-103882897D01*
X169495299Y-103917646D01*
X169525730Y-103920500D01*
X169534676Y-103920500D01*
X169601715Y-103940185D01*
X169647470Y-103992989D01*
X169657414Y-104062147D01*
X169628389Y-104125703D01*
X169590971Y-104154985D01*
X169472442Y-104215379D01*
X169300540Y-104340272D01*
X169300535Y-104340276D01*
X169150276Y-104490535D01*
X169150272Y-104490540D01*
X169025379Y-104662442D01*
X168928904Y-104851782D01*
X168863242Y-105053870D01*
X168863242Y-105053873D01*
X168852769Y-105120000D01*
X169896988Y-105120000D01*
X169864075Y-105177007D01*
X169830000Y-105304174D01*
X169830000Y-105435826D01*
X169864075Y-105562993D01*
X169896988Y-105620000D01*
X168852769Y-105620000D01*
X168863242Y-105686126D01*
X168863242Y-105686129D01*
X168928904Y-105888217D01*
X169025379Y-106077557D01*
X169150272Y-106249459D01*
X169150276Y-106249464D01*
X169300535Y-106399723D01*
X169300540Y-106399727D01*
X169472442Y-106524620D01*
X169661782Y-106621095D01*
X169863870Y-106686757D01*
X170073754Y-106720000D01*
X170080000Y-106720000D01*
X170080000Y-105803012D01*
X170137007Y-105835925D01*
X170264174Y-105870000D01*
X170395826Y-105870000D01*
X170522993Y-105835925D01*
X170580000Y-105803012D01*
X170580000Y-106720000D01*
X170586246Y-106720000D01*
X170796127Y-106686757D01*
X170796130Y-106686757D01*
X170998217Y-106621095D01*
X171187557Y-106524620D01*
X171359459Y-106399727D01*
X171359464Y-106399723D01*
X171509723Y-106249464D01*
X171509727Y-106249459D01*
X171634620Y-106077557D01*
X171731095Y-105888217D01*
X171796757Y-105686129D01*
X171796757Y-105686126D01*
X171807231Y-105620000D01*
X170763012Y-105620000D01*
X170795925Y-105562993D01*
X170830000Y-105435826D01*
X170830000Y-105304174D01*
X170795925Y-105177007D01*
X170763012Y-105120000D01*
X171807231Y-105120000D01*
X171796757Y-105053873D01*
X171796757Y-105053870D01*
X171731095Y-104851782D01*
X171634620Y-104662442D01*
X171509727Y-104490540D01*
X171509723Y-104490535D01*
X171359464Y-104340276D01*
X171359459Y-104340272D01*
X171187557Y-104215379D01*
X171069029Y-104154985D01*
X171018233Y-104107010D01*
X171001438Y-104039189D01*
X171023976Y-103973054D01*
X171078691Y-103929603D01*
X171125324Y-103920500D01*
X171134270Y-103920500D01*
X171164699Y-103917646D01*
X171164701Y-103917646D01*
X171228790Y-103895219D01*
X171292882Y-103872793D01*
X171402150Y-103792150D01*
X171482793Y-103682882D01*
X171505219Y-103618790D01*
X171527646Y-103554701D01*
X171527646Y-103554699D01*
X171530500Y-103524269D01*
X171530500Y-102215730D01*
X171527646Y-102185300D01*
X171527646Y-102185298D01*
X171482793Y-102057119D01*
X171482792Y-102057117D01*
X171402150Y-101947850D01*
X171292882Y-101867207D01*
X171292880Y-101867206D01*
X171164700Y-101822353D01*
X171134270Y-101819500D01*
X171134266Y-101819500D01*
X169967966Y-101819500D01*
X169900927Y-101799815D01*
X169880285Y-101783181D01*
X168026819Y-99929715D01*
X167993334Y-99868392D01*
X167990500Y-99842034D01*
X167990500Y-92710693D01*
X167990500Y-92710691D01*
X167959799Y-92596114D01*
X167959797Y-92596110D01*
X167934731Y-92552694D01*
X167900493Y-92493392D01*
X167900487Y-92493384D01*
X164986616Y-89579513D01*
X164986614Y-89579511D01*
X164935250Y-89549856D01*
X164883888Y-89520201D01*
X164871780Y-89516957D01*
X164859673Y-89513713D01*
X164859670Y-89513712D01*
X164821478Y-89503478D01*
X164769309Y-89489500D01*
X157950691Y-89489500D01*
X157836114Y-89520201D01*
X157836112Y-89520201D01*
X157836112Y-89520202D01*
X157733387Y-89579511D01*
X157733384Y-89579513D01*
X157649513Y-89663384D01*
X157649511Y-89663387D01*
X157590201Y-89766114D01*
X157559500Y-89880691D01*
X156375500Y-89880691D01*
X156375500Y-88862965D01*
X156395185Y-88795926D01*
X156411819Y-88775284D01*
X157250284Y-87936819D01*
X157311607Y-87903334D01*
X157337965Y-87900500D01*
X164379306Y-87900500D01*
X164379309Y-87900500D01*
X164493886Y-87869799D01*
X164596613Y-87810489D01*
X164680489Y-87726613D01*
X164739799Y-87623886D01*
X164770500Y-87509309D01*
X164770500Y-87390691D01*
X164739799Y-87276114D01*
X164680489Y-87173387D01*
X164596613Y-87089511D01*
X164493886Y-87030201D01*
X164379309Y-86999500D01*
X157040691Y-86999500D01*
X156950325Y-87023713D01*
X156950324Y-87023712D01*
X156926116Y-87030199D01*
X156926113Y-87030200D01*
X156823386Y-87089511D01*
X156823383Y-87089513D01*
X155564513Y-88348383D01*
X155564509Y-88348389D01*
X155505201Y-88451112D01*
X155505200Y-88451117D01*
X155474500Y-88565691D01*
X153725500Y-88565691D01*
X153725500Y-83503750D01*
X153725726Y-83496263D01*
X153741448Y-83236339D01*
X153743253Y-83221475D01*
X153789515Y-82969026D01*
X153793095Y-82954505D01*
X153869451Y-82709471D01*
X153874753Y-82695489D01*
X153980095Y-82461430D01*
X153987040Y-82448197D01*
X154119826Y-82228542D01*
X154128313Y-82216246D01*
X154286608Y-82014198D01*
X154296523Y-82003007D01*
X154478007Y-81821523D01*
X154489198Y-81811608D01*
X154691246Y-81653313D01*
X154703542Y-81644826D01*
X154923197Y-81512040D01*
X154936430Y-81505095D01*
X155170489Y-81399753D01*
X155184471Y-81394451D01*
X155429505Y-81318095D01*
X155444026Y-81314515D01*
X155696476Y-81268252D01*
X155711335Y-81266448D01*
X155971264Y-81250726D01*
X155978751Y-81250500D01*
X156019170Y-81250500D01*
X175375830Y-81250500D01*
X175416249Y-81250500D01*
X175423736Y-81250726D01*
G37*
G04 #@! TD.AperFunction*
M02*
