M48
; DRILL file {KiCad 9.0.1-9.0.1-0~ubuntu24.04.1} date 2025-05-08T14:38:07+0200
; FORMAT={-:-/ absolute / metric / decimal}
; #@! TF.CreationDate,2025-05-08T14:38:07+02:00
; #@! TF.GenerationSoftware,Kicad,Pcbnew,9.0.1-9.0.1-0~ubuntu24.04.1
; #@! TF.FileFunction,Plated,1,2,PTH
FMAT,2
METRIC
; #@! TA.AperFunction,Plated,PTH,ViaDrill
T1C0.300
; #@! TA.AperFunction,Plated,PTH,ComponentDrill
T2C1.000
%
G90
G05
T1
X154.525Y-83.175
X154.525Y-89.175
X154.525Y-91.175
X154.525Y-93.175
X154.525Y-95.175
X154.525Y-97.175
X154.525Y-99.175
X154.525Y-101.175
X154.525Y-103.175
X154.525Y-105.175
X154.525Y-107.175
X155.835Y-108.175
X156.7Y-81.95
X157.05Y-90.96
X157.05Y-91.76
X157.05Y-92.56
X157.05Y-93.36
X157.85Y-90.96
X157.85Y-91.76
X157.85Y-92.56
X157.85Y-93.36
X158.01Y-89.94
X158.375Y-108.175
X158.7Y-81.95
X159.51Y-90.9
X159.51Y-91.7
X159.51Y-92.5
X160.31Y-90.9
X160.31Y-91.7
X160.31Y-92.5
X160.7Y-81.95
X160.915Y-108.175
X161.11Y-90.9
X161.11Y-91.7
X161.11Y-92.5
X161.2Y-96.77
X161.91Y-90.9
X161.91Y-91.7
X161.91Y-92.5
X162.8Y-81.95
X162.8Y-83.95
X164.32Y-87.45
X164.47Y-99.0
X164.48Y-97.24
X164.48Y-98.12
X167.4Y-108.19
X169.94Y-108.19
X170.01Y-97.02
X170.02Y-95.26
X170.02Y-96.14
X172.48Y-108.19
X175.02Y-108.19
T2
X161.43Y-102.96
X161.43Y-105.46
X170.33Y-102.87
X170.33Y-105.37
M30
