%TF.GenerationSoftware,KiCad,Pcbnew,9.0.1-9.0.1-0~ubuntu24.04.1*%
%TF.CreationDate,2025-05-08T14:38:07+02:00*%
%TF.ProjectId,MP1584-5V,4d503135-3834-42d3-9556-2e6b69636164,rev?*%
%TF.SameCoordinates,Original*%
%TF.FileFunction,Drillmap*%
%TF.FilePolarity,Positive*%
%FSLAX45Y45*%
G04 Gerber Fmt 4.5, Leading zero omitted, Abs format (unit mm)*
G04 Created by KiCad (PCBNEW 9.0.1-9.0.1-0~ubuntu24.04.1) date 2025-05-08 14:38:07*
%MOMM*%
%LPD*%
G01*
G04 APERTURE LIST*
%ADD10C,0.050000*%
%ADD11C,0.200000*%
%ADD12C,0.100000*%
G04 APERTURE END LIST*
D10*
X15597500Y-10900000D02*
G75*
G02*
X15347500Y-10650000I0J250000D01*
G01*
X15347500Y-8350000D02*
G75*
G02*
X15597500Y-8100000I250000J0D01*
G01*
X17542000Y-8100000D02*
G75*
G02*
X17792000Y-8350000I0J-250000D01*
G01*
X15347500Y-10650000D02*
X15347500Y-8350000D01*
X17792000Y-10650000D02*
G75*
G02*
X17542000Y-10900000I-250000J0D01*
G01*
X15597500Y-8100000D02*
X17542000Y-8100000D01*
X17792000Y-8350000D02*
X17792000Y-10650000D01*
X17542000Y-10900000D02*
X15597500Y-10900000D01*
D11*
D12*
X15437500Y-8302500D02*
X15467500Y-8332500D01*
X15467500Y-8302500D02*
X15437500Y-8332500D01*
X15437500Y-8902500D02*
X15467500Y-8932500D01*
X15467500Y-8902500D02*
X15437500Y-8932500D01*
X15437500Y-9102500D02*
X15467500Y-9132500D01*
X15467500Y-9102500D02*
X15437500Y-9132500D01*
X15437500Y-9302500D02*
X15467500Y-9332500D01*
X15467500Y-9302500D02*
X15437500Y-9332500D01*
X15437500Y-9502500D02*
X15467500Y-9532500D01*
X15467500Y-9502500D02*
X15437500Y-9532500D01*
X15437500Y-9702500D02*
X15467500Y-9732500D01*
X15467500Y-9702500D02*
X15437500Y-9732500D01*
X15437500Y-9902500D02*
X15467500Y-9932500D01*
X15467500Y-9902500D02*
X15437500Y-9932500D01*
X15437500Y-10102500D02*
X15467500Y-10132500D01*
X15467500Y-10102500D02*
X15437500Y-10132500D01*
X15437500Y-10302500D02*
X15467500Y-10332500D01*
X15467500Y-10302500D02*
X15437500Y-10332500D01*
X15437500Y-10502500D02*
X15467500Y-10532500D01*
X15467500Y-10502500D02*
X15437500Y-10532500D01*
X15437500Y-10702500D02*
X15467500Y-10732500D01*
X15467500Y-10702500D02*
X15437500Y-10732500D01*
X15568500Y-10802540D02*
X15598500Y-10832540D01*
X15598500Y-10802540D02*
X15568500Y-10832540D01*
X15655000Y-8180000D02*
X15685000Y-8210000D01*
X15685000Y-8180000D02*
X15655000Y-8210000D01*
X15690000Y-9081000D02*
X15720000Y-9111000D01*
X15720000Y-9081000D02*
X15690000Y-9111000D01*
X15690000Y-9161000D02*
X15720000Y-9191000D01*
X15720000Y-9161000D02*
X15690000Y-9191000D01*
X15690000Y-9241000D02*
X15720000Y-9271000D01*
X15720000Y-9241000D02*
X15690000Y-9271000D01*
X15690000Y-9321000D02*
X15720000Y-9351000D01*
X15720000Y-9321000D02*
X15690000Y-9351000D01*
X15770000Y-9081000D02*
X15800000Y-9111000D01*
X15800000Y-9081000D02*
X15770000Y-9111000D01*
X15770000Y-9161000D02*
X15800000Y-9191000D01*
X15800000Y-9161000D02*
X15770000Y-9191000D01*
X15770000Y-9241000D02*
X15800000Y-9271000D01*
X15800000Y-9241000D02*
X15770000Y-9271000D01*
X15770000Y-9321000D02*
X15800000Y-9351000D01*
X15800000Y-9321000D02*
X15770000Y-9351000D01*
X15786000Y-8979000D02*
X15816000Y-9009000D01*
X15816000Y-8979000D02*
X15786000Y-9009000D01*
X15822500Y-10802540D02*
X15852500Y-10832540D01*
X15852500Y-10802540D02*
X15822500Y-10832540D01*
X15855000Y-8180000D02*
X15885000Y-8210000D01*
X15885000Y-8180000D02*
X15855000Y-8210000D01*
X15936000Y-9075000D02*
X15966000Y-9105000D01*
X15966000Y-9075000D02*
X15936000Y-9105000D01*
X15936000Y-9155000D02*
X15966000Y-9185000D01*
X15966000Y-9155000D02*
X15936000Y-9185000D01*
X15936000Y-9235000D02*
X15966000Y-9265000D01*
X15966000Y-9235000D02*
X15936000Y-9265000D01*
X16016000Y-9075000D02*
X16046000Y-9105000D01*
X16046000Y-9075000D02*
X16016000Y-9105000D01*
X16016000Y-9155000D02*
X16046000Y-9185000D01*
X16046000Y-9155000D02*
X16016000Y-9185000D01*
X16016000Y-9235000D02*
X16046000Y-9265000D01*
X16046000Y-9235000D02*
X16016000Y-9265000D01*
X16055000Y-8180000D02*
X16085000Y-8210000D01*
X16085000Y-8180000D02*
X16055000Y-8210000D01*
X16076500Y-10802540D02*
X16106500Y-10832540D01*
X16106500Y-10802540D02*
X16076500Y-10832540D01*
X16096000Y-9075000D02*
X16126000Y-9105000D01*
X16126000Y-9075000D02*
X16096000Y-9105000D01*
X16096000Y-9155000D02*
X16126000Y-9185000D01*
X16126000Y-9155000D02*
X16096000Y-9185000D01*
X16096000Y-9235000D02*
X16126000Y-9265000D01*
X16126000Y-9235000D02*
X16096000Y-9265000D01*
X16105000Y-9662000D02*
X16135000Y-9692000D01*
X16135000Y-9662000D02*
X16105000Y-9692000D01*
X16176000Y-9075000D02*
X16206000Y-9105000D01*
X16206000Y-9075000D02*
X16176000Y-9105000D01*
X16176000Y-9155000D02*
X16206000Y-9185000D01*
X16206000Y-9155000D02*
X16176000Y-9185000D01*
X16176000Y-9235000D02*
X16206000Y-9265000D01*
X16206000Y-9235000D02*
X16176000Y-9265000D01*
X16265000Y-8180000D02*
X16295000Y-8210000D01*
X16295000Y-8180000D02*
X16265000Y-8210000D01*
X16265000Y-8380000D02*
X16295000Y-8410000D01*
X16295000Y-8380000D02*
X16265000Y-8410000D01*
X16417000Y-8730000D02*
X16447000Y-8760000D01*
X16447000Y-8730000D02*
X16417000Y-8760000D01*
X16432000Y-9885000D02*
X16462000Y-9915000D01*
X16462000Y-9885000D02*
X16432000Y-9915000D01*
X16433000Y-9709000D02*
X16463000Y-9739000D01*
X16463000Y-9709000D02*
X16433000Y-9739000D01*
X16433000Y-9797000D02*
X16463000Y-9827000D01*
X16463000Y-9797000D02*
X16433000Y-9827000D01*
X16725000Y-10804000D02*
X16755000Y-10834000D01*
X16755000Y-10804000D02*
X16725000Y-10834000D01*
X16979000Y-10804000D02*
X17009000Y-10834000D01*
X17009000Y-10804000D02*
X16979000Y-10834000D01*
X16986000Y-9687000D02*
X17016000Y-9717000D01*
X17016000Y-9687000D02*
X16986000Y-9717000D01*
X16987000Y-9511000D02*
X17017000Y-9541000D01*
X17017000Y-9511000D02*
X16987000Y-9541000D01*
X16987000Y-9599000D02*
X17017000Y-9629000D01*
X17017000Y-9599000D02*
X16987000Y-9629000D01*
X17233000Y-10804000D02*
X17263000Y-10834000D01*
X17263000Y-10804000D02*
X17233000Y-10834000D01*
X17487000Y-10804000D02*
X17517000Y-10834000D01*
X17517000Y-10804000D02*
X17487000Y-10834000D01*
X16193000Y-10296000D02*
G75*
G02*
X16093000Y-10296000I-50000J0D01*
G01*
X16093000Y-10296000D02*
G75*
G02*
X16193000Y-10296000I50000J0D01*
G01*
X16193000Y-10546000D02*
G75*
G02*
X16093000Y-10546000I-50000J0D01*
G01*
X16093000Y-10546000D02*
G75*
G02*
X16193000Y-10546000I50000J0D01*
G01*
X17083000Y-10287000D02*
G75*
G02*
X16983000Y-10287000I-50000J0D01*
G01*
X16983000Y-10287000D02*
G75*
G02*
X17083000Y-10287000I50000J0D01*
G01*
X17083000Y-10537000D02*
G75*
G02*
X16983000Y-10537000I-50000J0D01*
G01*
X16983000Y-10537000D02*
G75*
G02*
X17083000Y-10537000I50000J0D01*
G01*
D11*
X15605777Y-11213984D02*
X15605777Y-11013984D01*
X15605777Y-11013984D02*
X15653396Y-11013984D01*
X15653396Y-11013984D02*
X15681967Y-11023508D01*
X15681967Y-11023508D02*
X15701015Y-11042555D01*
X15701015Y-11042555D02*
X15710539Y-11061603D01*
X15710539Y-11061603D02*
X15720062Y-11099698D01*
X15720062Y-11099698D02*
X15720062Y-11128270D01*
X15720062Y-11128270D02*
X15710539Y-11166365D01*
X15710539Y-11166365D02*
X15701015Y-11185412D01*
X15701015Y-11185412D02*
X15681967Y-11204460D01*
X15681967Y-11204460D02*
X15653396Y-11213984D01*
X15653396Y-11213984D02*
X15605777Y-11213984D01*
X15805777Y-11213984D02*
X15805777Y-11080650D01*
X15805777Y-11118746D02*
X15815301Y-11099698D01*
X15815301Y-11099698D02*
X15824824Y-11090174D01*
X15824824Y-11090174D02*
X15843872Y-11080650D01*
X15843872Y-11080650D02*
X15862920Y-11080650D01*
X15929586Y-11213984D02*
X15929586Y-11080650D01*
X15929586Y-11013984D02*
X15920062Y-11023508D01*
X15920062Y-11023508D02*
X15929586Y-11033031D01*
X15929586Y-11033031D02*
X15939110Y-11023508D01*
X15939110Y-11023508D02*
X15929586Y-11013984D01*
X15929586Y-11013984D02*
X15929586Y-11033031D01*
X16053396Y-11213984D02*
X16034348Y-11204460D01*
X16034348Y-11204460D02*
X16024824Y-11185412D01*
X16024824Y-11185412D02*
X16024824Y-11013984D01*
X16158158Y-11213984D02*
X16139110Y-11204460D01*
X16139110Y-11204460D02*
X16129586Y-11185412D01*
X16129586Y-11185412D02*
X16129586Y-11013984D01*
X16386729Y-11213984D02*
X16386729Y-11013984D01*
X16386729Y-11013984D02*
X16453396Y-11156841D01*
X16453396Y-11156841D02*
X16520062Y-11013984D01*
X16520062Y-11013984D02*
X16520062Y-11213984D01*
X16701015Y-11213984D02*
X16701015Y-11109222D01*
X16701015Y-11109222D02*
X16691491Y-11090174D01*
X16691491Y-11090174D02*
X16672443Y-11080650D01*
X16672443Y-11080650D02*
X16634348Y-11080650D01*
X16634348Y-11080650D02*
X16615301Y-11090174D01*
X16701015Y-11204460D02*
X16681967Y-11213984D01*
X16681967Y-11213984D02*
X16634348Y-11213984D01*
X16634348Y-11213984D02*
X16615301Y-11204460D01*
X16615301Y-11204460D02*
X16605777Y-11185412D01*
X16605777Y-11185412D02*
X16605777Y-11166365D01*
X16605777Y-11166365D02*
X16615301Y-11147317D01*
X16615301Y-11147317D02*
X16634348Y-11137793D01*
X16634348Y-11137793D02*
X16681967Y-11137793D01*
X16681967Y-11137793D02*
X16701015Y-11128270D01*
X16796253Y-11080650D02*
X16796253Y-11280650D01*
X16796253Y-11090174D02*
X16815301Y-11080650D01*
X16815301Y-11080650D02*
X16853396Y-11080650D01*
X16853396Y-11080650D02*
X16872444Y-11090174D01*
X16872444Y-11090174D02*
X16881967Y-11099698D01*
X16881967Y-11099698D02*
X16891491Y-11118746D01*
X16891491Y-11118746D02*
X16891491Y-11175889D01*
X16891491Y-11175889D02*
X16881967Y-11194936D01*
X16881967Y-11194936D02*
X16872444Y-11204460D01*
X16872444Y-11204460D02*
X16853396Y-11213984D01*
X16853396Y-11213984D02*
X16815301Y-11213984D01*
X16815301Y-11213984D02*
X16796253Y-11204460D01*
X16977205Y-11194936D02*
X16986729Y-11204460D01*
X16986729Y-11204460D02*
X16977205Y-11213984D01*
X16977205Y-11213984D02*
X16967682Y-11204460D01*
X16967682Y-11204460D02*
X16977205Y-11194936D01*
X16977205Y-11194936D02*
X16977205Y-11213984D01*
X16977205Y-11090174D02*
X16986729Y-11099698D01*
X16986729Y-11099698D02*
X16977205Y-11109222D01*
X16977205Y-11109222D02*
X16967682Y-11099698D01*
X16967682Y-11099698D02*
X16977205Y-11090174D01*
X16977205Y-11090174D02*
X16977205Y-11109222D01*
D12*
X15315000Y-11527500D02*
X15345000Y-11557500D01*
X15345000Y-11527500D02*
X15315000Y-11557500D01*
D11*
X15643872Y-11433984D02*
X15662920Y-11433984D01*
X15662920Y-11433984D02*
X15681967Y-11443508D01*
X15681967Y-11443508D02*
X15691491Y-11453031D01*
X15691491Y-11453031D02*
X15701015Y-11472079D01*
X15701015Y-11472079D02*
X15710539Y-11510174D01*
X15710539Y-11510174D02*
X15710539Y-11557793D01*
X15710539Y-11557793D02*
X15701015Y-11595888D01*
X15701015Y-11595888D02*
X15691491Y-11614936D01*
X15691491Y-11614936D02*
X15681967Y-11624460D01*
X15681967Y-11624460D02*
X15662920Y-11633984D01*
X15662920Y-11633984D02*
X15643872Y-11633984D01*
X15643872Y-11633984D02*
X15624824Y-11624460D01*
X15624824Y-11624460D02*
X15615301Y-11614936D01*
X15615301Y-11614936D02*
X15605777Y-11595888D01*
X15605777Y-11595888D02*
X15596253Y-11557793D01*
X15596253Y-11557793D02*
X15596253Y-11510174D01*
X15596253Y-11510174D02*
X15605777Y-11472079D01*
X15605777Y-11472079D02*
X15615301Y-11453031D01*
X15615301Y-11453031D02*
X15624824Y-11443508D01*
X15624824Y-11443508D02*
X15643872Y-11433984D01*
X15796253Y-11614936D02*
X15805777Y-11624460D01*
X15805777Y-11624460D02*
X15796253Y-11633984D01*
X15796253Y-11633984D02*
X15786729Y-11624460D01*
X15786729Y-11624460D02*
X15796253Y-11614936D01*
X15796253Y-11614936D02*
X15796253Y-11633984D01*
X15872443Y-11433984D02*
X15996253Y-11433984D01*
X15996253Y-11433984D02*
X15929586Y-11510174D01*
X15929586Y-11510174D02*
X15958158Y-11510174D01*
X15958158Y-11510174D02*
X15977205Y-11519698D01*
X15977205Y-11519698D02*
X15986729Y-11529222D01*
X15986729Y-11529222D02*
X15996253Y-11548269D01*
X15996253Y-11548269D02*
X15996253Y-11595888D01*
X15996253Y-11595888D02*
X15986729Y-11614936D01*
X15986729Y-11614936D02*
X15977205Y-11624460D01*
X15977205Y-11624460D02*
X15958158Y-11633984D01*
X15958158Y-11633984D02*
X15901015Y-11633984D01*
X15901015Y-11633984D02*
X15881967Y-11624460D01*
X15881967Y-11624460D02*
X15872443Y-11614936D01*
X16120062Y-11433984D02*
X16139110Y-11433984D01*
X16139110Y-11433984D02*
X16158158Y-11443508D01*
X16158158Y-11443508D02*
X16167682Y-11453031D01*
X16167682Y-11453031D02*
X16177205Y-11472079D01*
X16177205Y-11472079D02*
X16186729Y-11510174D01*
X16186729Y-11510174D02*
X16186729Y-11557793D01*
X16186729Y-11557793D02*
X16177205Y-11595888D01*
X16177205Y-11595888D02*
X16167682Y-11614936D01*
X16167682Y-11614936D02*
X16158158Y-11624460D01*
X16158158Y-11624460D02*
X16139110Y-11633984D01*
X16139110Y-11633984D02*
X16120062Y-11633984D01*
X16120062Y-11633984D02*
X16101015Y-11624460D01*
X16101015Y-11624460D02*
X16091491Y-11614936D01*
X16091491Y-11614936D02*
X16081967Y-11595888D01*
X16081967Y-11595888D02*
X16072443Y-11557793D01*
X16072443Y-11557793D02*
X16072443Y-11510174D01*
X16072443Y-11510174D02*
X16081967Y-11472079D01*
X16081967Y-11472079D02*
X16091491Y-11453031D01*
X16091491Y-11453031D02*
X16101015Y-11443508D01*
X16101015Y-11443508D02*
X16120062Y-11433984D01*
X16310539Y-11433984D02*
X16329586Y-11433984D01*
X16329586Y-11433984D02*
X16348634Y-11443508D01*
X16348634Y-11443508D02*
X16358158Y-11453031D01*
X16358158Y-11453031D02*
X16367682Y-11472079D01*
X16367682Y-11472079D02*
X16377205Y-11510174D01*
X16377205Y-11510174D02*
X16377205Y-11557793D01*
X16377205Y-11557793D02*
X16367682Y-11595888D01*
X16367682Y-11595888D02*
X16358158Y-11614936D01*
X16358158Y-11614936D02*
X16348634Y-11624460D01*
X16348634Y-11624460D02*
X16329586Y-11633984D01*
X16329586Y-11633984D02*
X16310539Y-11633984D01*
X16310539Y-11633984D02*
X16291491Y-11624460D01*
X16291491Y-11624460D02*
X16281967Y-11614936D01*
X16281967Y-11614936D02*
X16272443Y-11595888D01*
X16272443Y-11595888D02*
X16262920Y-11557793D01*
X16262920Y-11557793D02*
X16262920Y-11510174D01*
X16262920Y-11510174D02*
X16272443Y-11472079D01*
X16272443Y-11472079D02*
X16281967Y-11453031D01*
X16281967Y-11453031D02*
X16291491Y-11443508D01*
X16291491Y-11443508D02*
X16310539Y-11433984D01*
X16462920Y-11633984D02*
X16462920Y-11500650D01*
X16462920Y-11519698D02*
X16472443Y-11510174D01*
X16472443Y-11510174D02*
X16491491Y-11500650D01*
X16491491Y-11500650D02*
X16520063Y-11500650D01*
X16520063Y-11500650D02*
X16539110Y-11510174D01*
X16539110Y-11510174D02*
X16548634Y-11529222D01*
X16548634Y-11529222D02*
X16548634Y-11633984D01*
X16548634Y-11529222D02*
X16558158Y-11510174D01*
X16558158Y-11510174D02*
X16577205Y-11500650D01*
X16577205Y-11500650D02*
X16605777Y-11500650D01*
X16605777Y-11500650D02*
X16624824Y-11510174D01*
X16624824Y-11510174D02*
X16634348Y-11529222D01*
X16634348Y-11529222D02*
X16634348Y-11633984D01*
X16729586Y-11633984D02*
X16729586Y-11500650D01*
X16729586Y-11519698D02*
X16739110Y-11510174D01*
X16739110Y-11510174D02*
X16758158Y-11500650D01*
X16758158Y-11500650D02*
X16786729Y-11500650D01*
X16786729Y-11500650D02*
X16805777Y-11510174D01*
X16805777Y-11510174D02*
X16815301Y-11529222D01*
X16815301Y-11529222D02*
X16815301Y-11633984D01*
X16815301Y-11529222D02*
X16824825Y-11510174D01*
X16824825Y-11510174D02*
X16843872Y-11500650D01*
X16843872Y-11500650D02*
X16872444Y-11500650D01*
X16872444Y-11500650D02*
X16891491Y-11510174D01*
X16891491Y-11510174D02*
X16901015Y-11529222D01*
X16901015Y-11529222D02*
X16901015Y-11633984D01*
X17291491Y-11424460D02*
X17120063Y-11681603D01*
X17548634Y-11433984D02*
X17567682Y-11433984D01*
X17567682Y-11433984D02*
X17586729Y-11443508D01*
X17586729Y-11443508D02*
X17596253Y-11453031D01*
X17596253Y-11453031D02*
X17605777Y-11472079D01*
X17605777Y-11472079D02*
X17615301Y-11510174D01*
X17615301Y-11510174D02*
X17615301Y-11557793D01*
X17615301Y-11557793D02*
X17605777Y-11595888D01*
X17605777Y-11595888D02*
X17596253Y-11614936D01*
X17596253Y-11614936D02*
X17586729Y-11624460D01*
X17586729Y-11624460D02*
X17567682Y-11633984D01*
X17567682Y-11633984D02*
X17548634Y-11633984D01*
X17548634Y-11633984D02*
X17529587Y-11624460D01*
X17529587Y-11624460D02*
X17520063Y-11614936D01*
X17520063Y-11614936D02*
X17510539Y-11595888D01*
X17510539Y-11595888D02*
X17501015Y-11557793D01*
X17501015Y-11557793D02*
X17501015Y-11510174D01*
X17501015Y-11510174D02*
X17510539Y-11472079D01*
X17510539Y-11472079D02*
X17520063Y-11453031D01*
X17520063Y-11453031D02*
X17529587Y-11443508D01*
X17529587Y-11443508D02*
X17548634Y-11433984D01*
X17701015Y-11614936D02*
X17710539Y-11624460D01*
X17710539Y-11624460D02*
X17701015Y-11633984D01*
X17701015Y-11633984D02*
X17691491Y-11624460D01*
X17691491Y-11624460D02*
X17701015Y-11614936D01*
X17701015Y-11614936D02*
X17701015Y-11633984D01*
X17834348Y-11433984D02*
X17853396Y-11433984D01*
X17853396Y-11433984D02*
X17872444Y-11443508D01*
X17872444Y-11443508D02*
X17881968Y-11453031D01*
X17881968Y-11453031D02*
X17891491Y-11472079D01*
X17891491Y-11472079D02*
X17901015Y-11510174D01*
X17901015Y-11510174D02*
X17901015Y-11557793D01*
X17901015Y-11557793D02*
X17891491Y-11595888D01*
X17891491Y-11595888D02*
X17881968Y-11614936D01*
X17881968Y-11614936D02*
X17872444Y-11624460D01*
X17872444Y-11624460D02*
X17853396Y-11633984D01*
X17853396Y-11633984D02*
X17834348Y-11633984D01*
X17834348Y-11633984D02*
X17815301Y-11624460D01*
X17815301Y-11624460D02*
X17805777Y-11614936D01*
X17805777Y-11614936D02*
X17796253Y-11595888D01*
X17796253Y-11595888D02*
X17786729Y-11557793D01*
X17786729Y-11557793D02*
X17786729Y-11510174D01*
X17786729Y-11510174D02*
X17796253Y-11472079D01*
X17796253Y-11472079D02*
X17805777Y-11453031D01*
X17805777Y-11453031D02*
X17815301Y-11443508D01*
X17815301Y-11443508D02*
X17834348Y-11433984D01*
X18091491Y-11633984D02*
X17977206Y-11633984D01*
X18034348Y-11633984D02*
X18034348Y-11433984D01*
X18034348Y-11433984D02*
X18015301Y-11462555D01*
X18015301Y-11462555D02*
X17996253Y-11481603D01*
X17996253Y-11481603D02*
X17977206Y-11491127D01*
X18281968Y-11633984D02*
X18167682Y-11633984D01*
X18224825Y-11633984D02*
X18224825Y-11433984D01*
X18224825Y-11433984D02*
X18205777Y-11462555D01*
X18205777Y-11462555D02*
X18186729Y-11481603D01*
X18186729Y-11481603D02*
X18167682Y-11491127D01*
X18396253Y-11519698D02*
X18377206Y-11510174D01*
X18377206Y-11510174D02*
X18367682Y-11500650D01*
X18367682Y-11500650D02*
X18358158Y-11481603D01*
X18358158Y-11481603D02*
X18358158Y-11472079D01*
X18358158Y-11472079D02*
X18367682Y-11453031D01*
X18367682Y-11453031D02*
X18377206Y-11443508D01*
X18377206Y-11443508D02*
X18396253Y-11433984D01*
X18396253Y-11433984D02*
X18434349Y-11433984D01*
X18434349Y-11433984D02*
X18453396Y-11443508D01*
X18453396Y-11443508D02*
X18462920Y-11453031D01*
X18462920Y-11453031D02*
X18472444Y-11472079D01*
X18472444Y-11472079D02*
X18472444Y-11481603D01*
X18472444Y-11481603D02*
X18462920Y-11500650D01*
X18462920Y-11500650D02*
X18453396Y-11510174D01*
X18453396Y-11510174D02*
X18434349Y-11519698D01*
X18434349Y-11519698D02*
X18396253Y-11519698D01*
X18396253Y-11519698D02*
X18377206Y-11529222D01*
X18377206Y-11529222D02*
X18367682Y-11538746D01*
X18367682Y-11538746D02*
X18358158Y-11557793D01*
X18358158Y-11557793D02*
X18358158Y-11595888D01*
X18358158Y-11595888D02*
X18367682Y-11614936D01*
X18367682Y-11614936D02*
X18377206Y-11624460D01*
X18377206Y-11624460D02*
X18396253Y-11633984D01*
X18396253Y-11633984D02*
X18434349Y-11633984D01*
X18434349Y-11633984D02*
X18453396Y-11624460D01*
X18453396Y-11624460D02*
X18462920Y-11614936D01*
X18462920Y-11614936D02*
X18472444Y-11595888D01*
X18472444Y-11595888D02*
X18472444Y-11557793D01*
X18472444Y-11557793D02*
X18462920Y-11538746D01*
X18462920Y-11538746D02*
X18453396Y-11529222D01*
X18453396Y-11529222D02*
X18434349Y-11519698D01*
X18548634Y-11433984D02*
X18548634Y-11472079D01*
X18624825Y-11433984D02*
X18624825Y-11472079D01*
X18920063Y-11710174D02*
X18910539Y-11700650D01*
X18910539Y-11700650D02*
X18891491Y-11672079D01*
X18891491Y-11672079D02*
X18881968Y-11653031D01*
X18881968Y-11653031D02*
X18872444Y-11624460D01*
X18872444Y-11624460D02*
X18862920Y-11576841D01*
X18862920Y-11576841D02*
X18862920Y-11538746D01*
X18862920Y-11538746D02*
X18872444Y-11491127D01*
X18872444Y-11491127D02*
X18881968Y-11462555D01*
X18881968Y-11462555D02*
X18891491Y-11443508D01*
X18891491Y-11443508D02*
X18910539Y-11414936D01*
X18910539Y-11414936D02*
X18920063Y-11405412D01*
X19091491Y-11433984D02*
X18996253Y-11433984D01*
X18996253Y-11433984D02*
X18986730Y-11529222D01*
X18986730Y-11529222D02*
X18996253Y-11519698D01*
X18996253Y-11519698D02*
X19015301Y-11510174D01*
X19015301Y-11510174D02*
X19062920Y-11510174D01*
X19062920Y-11510174D02*
X19081968Y-11519698D01*
X19081968Y-11519698D02*
X19091491Y-11529222D01*
X19091491Y-11529222D02*
X19101015Y-11548269D01*
X19101015Y-11548269D02*
X19101015Y-11595888D01*
X19101015Y-11595888D02*
X19091491Y-11614936D01*
X19091491Y-11614936D02*
X19081968Y-11624460D01*
X19081968Y-11624460D02*
X19062920Y-11633984D01*
X19062920Y-11633984D02*
X19015301Y-11633984D01*
X19015301Y-11633984D02*
X18996253Y-11624460D01*
X18996253Y-11624460D02*
X18986730Y-11614936D01*
X19177206Y-11453031D02*
X19186730Y-11443508D01*
X19186730Y-11443508D02*
X19205777Y-11433984D01*
X19205777Y-11433984D02*
X19253396Y-11433984D01*
X19253396Y-11433984D02*
X19272444Y-11443508D01*
X19272444Y-11443508D02*
X19281968Y-11453031D01*
X19281968Y-11453031D02*
X19291491Y-11472079D01*
X19291491Y-11472079D02*
X19291491Y-11491127D01*
X19291491Y-11491127D02*
X19281968Y-11519698D01*
X19281968Y-11519698D02*
X19167682Y-11633984D01*
X19167682Y-11633984D02*
X19291491Y-11633984D01*
X19529587Y-11633984D02*
X19529587Y-11433984D01*
X19615301Y-11633984D02*
X19615301Y-11529222D01*
X19615301Y-11529222D02*
X19605777Y-11510174D01*
X19605777Y-11510174D02*
X19586730Y-11500650D01*
X19586730Y-11500650D02*
X19558158Y-11500650D01*
X19558158Y-11500650D02*
X19539111Y-11510174D01*
X19539111Y-11510174D02*
X19529587Y-11519698D01*
X19739111Y-11633984D02*
X19720063Y-11624460D01*
X19720063Y-11624460D02*
X19710539Y-11614936D01*
X19710539Y-11614936D02*
X19701015Y-11595888D01*
X19701015Y-11595888D02*
X19701015Y-11538746D01*
X19701015Y-11538746D02*
X19710539Y-11519698D01*
X19710539Y-11519698D02*
X19720063Y-11510174D01*
X19720063Y-11510174D02*
X19739111Y-11500650D01*
X19739111Y-11500650D02*
X19767682Y-11500650D01*
X19767682Y-11500650D02*
X19786730Y-11510174D01*
X19786730Y-11510174D02*
X19796253Y-11519698D01*
X19796253Y-11519698D02*
X19805777Y-11538746D01*
X19805777Y-11538746D02*
X19805777Y-11595888D01*
X19805777Y-11595888D02*
X19796253Y-11614936D01*
X19796253Y-11614936D02*
X19786730Y-11624460D01*
X19786730Y-11624460D02*
X19767682Y-11633984D01*
X19767682Y-11633984D02*
X19739111Y-11633984D01*
X19920063Y-11633984D02*
X19901015Y-11624460D01*
X19901015Y-11624460D02*
X19891492Y-11605412D01*
X19891492Y-11605412D02*
X19891492Y-11433984D01*
X20072444Y-11624460D02*
X20053396Y-11633984D01*
X20053396Y-11633984D02*
X20015301Y-11633984D01*
X20015301Y-11633984D02*
X19996253Y-11624460D01*
X19996253Y-11624460D02*
X19986730Y-11605412D01*
X19986730Y-11605412D02*
X19986730Y-11529222D01*
X19986730Y-11529222D02*
X19996253Y-11510174D01*
X19996253Y-11510174D02*
X20015301Y-11500650D01*
X20015301Y-11500650D02*
X20053396Y-11500650D01*
X20053396Y-11500650D02*
X20072444Y-11510174D01*
X20072444Y-11510174D02*
X20081968Y-11529222D01*
X20081968Y-11529222D02*
X20081968Y-11548269D01*
X20081968Y-11548269D02*
X19986730Y-11567317D01*
X20158158Y-11624460D02*
X20177206Y-11633984D01*
X20177206Y-11633984D02*
X20215301Y-11633984D01*
X20215301Y-11633984D02*
X20234349Y-11624460D01*
X20234349Y-11624460D02*
X20243873Y-11605412D01*
X20243873Y-11605412D02*
X20243873Y-11595888D01*
X20243873Y-11595888D02*
X20234349Y-11576841D01*
X20234349Y-11576841D02*
X20215301Y-11567317D01*
X20215301Y-11567317D02*
X20186730Y-11567317D01*
X20186730Y-11567317D02*
X20167682Y-11557793D01*
X20167682Y-11557793D02*
X20158158Y-11538746D01*
X20158158Y-11538746D02*
X20158158Y-11529222D01*
X20158158Y-11529222D02*
X20167682Y-11510174D01*
X20167682Y-11510174D02*
X20186730Y-11500650D01*
X20186730Y-11500650D02*
X20215301Y-11500650D01*
X20215301Y-11500650D02*
X20234349Y-11510174D01*
X20310539Y-11710174D02*
X20320063Y-11700650D01*
X20320063Y-11700650D02*
X20339111Y-11672079D01*
X20339111Y-11672079D02*
X20348634Y-11653031D01*
X20348634Y-11653031D02*
X20358158Y-11624460D01*
X20358158Y-11624460D02*
X20367682Y-11576841D01*
X20367682Y-11576841D02*
X20367682Y-11538746D01*
X20367682Y-11538746D02*
X20358158Y-11491127D01*
X20358158Y-11491127D02*
X20348634Y-11462555D01*
X20348634Y-11462555D02*
X20339111Y-11443508D01*
X20339111Y-11443508D02*
X20320063Y-11414936D01*
X20320063Y-11414936D02*
X20310539Y-11405412D01*
D12*
X15345000Y-11806500D02*
G75*
G02*
X15245000Y-11806500I-50000J0D01*
G01*
X15245000Y-11806500D02*
G75*
G02*
X15345000Y-11806500I50000J0D01*
G01*
D11*
X15710539Y-11897984D02*
X15596253Y-11897984D01*
X15653396Y-11897984D02*
X15653396Y-11697984D01*
X15653396Y-11697984D02*
X15634348Y-11726555D01*
X15634348Y-11726555D02*
X15615301Y-11745603D01*
X15615301Y-11745603D02*
X15596253Y-11755127D01*
X15796253Y-11878936D02*
X15805777Y-11888460D01*
X15805777Y-11888460D02*
X15796253Y-11897984D01*
X15796253Y-11897984D02*
X15786729Y-11888460D01*
X15786729Y-11888460D02*
X15796253Y-11878936D01*
X15796253Y-11878936D02*
X15796253Y-11897984D01*
X15929586Y-11697984D02*
X15948634Y-11697984D01*
X15948634Y-11697984D02*
X15967682Y-11707508D01*
X15967682Y-11707508D02*
X15977205Y-11717031D01*
X15977205Y-11717031D02*
X15986729Y-11736079D01*
X15986729Y-11736079D02*
X15996253Y-11774174D01*
X15996253Y-11774174D02*
X15996253Y-11821793D01*
X15996253Y-11821793D02*
X15986729Y-11859888D01*
X15986729Y-11859888D02*
X15977205Y-11878936D01*
X15977205Y-11878936D02*
X15967682Y-11888460D01*
X15967682Y-11888460D02*
X15948634Y-11897984D01*
X15948634Y-11897984D02*
X15929586Y-11897984D01*
X15929586Y-11897984D02*
X15910539Y-11888460D01*
X15910539Y-11888460D02*
X15901015Y-11878936D01*
X15901015Y-11878936D02*
X15891491Y-11859888D01*
X15891491Y-11859888D02*
X15881967Y-11821793D01*
X15881967Y-11821793D02*
X15881967Y-11774174D01*
X15881967Y-11774174D02*
X15891491Y-11736079D01*
X15891491Y-11736079D02*
X15901015Y-11717031D01*
X15901015Y-11717031D02*
X15910539Y-11707508D01*
X15910539Y-11707508D02*
X15929586Y-11697984D01*
X16120062Y-11697984D02*
X16139110Y-11697984D01*
X16139110Y-11697984D02*
X16158158Y-11707508D01*
X16158158Y-11707508D02*
X16167682Y-11717031D01*
X16167682Y-11717031D02*
X16177205Y-11736079D01*
X16177205Y-11736079D02*
X16186729Y-11774174D01*
X16186729Y-11774174D02*
X16186729Y-11821793D01*
X16186729Y-11821793D02*
X16177205Y-11859888D01*
X16177205Y-11859888D02*
X16167682Y-11878936D01*
X16167682Y-11878936D02*
X16158158Y-11888460D01*
X16158158Y-11888460D02*
X16139110Y-11897984D01*
X16139110Y-11897984D02*
X16120062Y-11897984D01*
X16120062Y-11897984D02*
X16101015Y-11888460D01*
X16101015Y-11888460D02*
X16091491Y-11878936D01*
X16091491Y-11878936D02*
X16081967Y-11859888D01*
X16081967Y-11859888D02*
X16072443Y-11821793D01*
X16072443Y-11821793D02*
X16072443Y-11774174D01*
X16072443Y-11774174D02*
X16081967Y-11736079D01*
X16081967Y-11736079D02*
X16091491Y-11717031D01*
X16091491Y-11717031D02*
X16101015Y-11707508D01*
X16101015Y-11707508D02*
X16120062Y-11697984D01*
X16310539Y-11697984D02*
X16329586Y-11697984D01*
X16329586Y-11697984D02*
X16348634Y-11707508D01*
X16348634Y-11707508D02*
X16358158Y-11717031D01*
X16358158Y-11717031D02*
X16367682Y-11736079D01*
X16367682Y-11736079D02*
X16377205Y-11774174D01*
X16377205Y-11774174D02*
X16377205Y-11821793D01*
X16377205Y-11821793D02*
X16367682Y-11859888D01*
X16367682Y-11859888D02*
X16358158Y-11878936D01*
X16358158Y-11878936D02*
X16348634Y-11888460D01*
X16348634Y-11888460D02*
X16329586Y-11897984D01*
X16329586Y-11897984D02*
X16310539Y-11897984D01*
X16310539Y-11897984D02*
X16291491Y-11888460D01*
X16291491Y-11888460D02*
X16281967Y-11878936D01*
X16281967Y-11878936D02*
X16272443Y-11859888D01*
X16272443Y-11859888D02*
X16262920Y-11821793D01*
X16262920Y-11821793D02*
X16262920Y-11774174D01*
X16262920Y-11774174D02*
X16272443Y-11736079D01*
X16272443Y-11736079D02*
X16281967Y-11717031D01*
X16281967Y-11717031D02*
X16291491Y-11707508D01*
X16291491Y-11707508D02*
X16310539Y-11697984D01*
X16462920Y-11897984D02*
X16462920Y-11764650D01*
X16462920Y-11783698D02*
X16472443Y-11774174D01*
X16472443Y-11774174D02*
X16491491Y-11764650D01*
X16491491Y-11764650D02*
X16520063Y-11764650D01*
X16520063Y-11764650D02*
X16539110Y-11774174D01*
X16539110Y-11774174D02*
X16548634Y-11793222D01*
X16548634Y-11793222D02*
X16548634Y-11897984D01*
X16548634Y-11793222D02*
X16558158Y-11774174D01*
X16558158Y-11774174D02*
X16577205Y-11764650D01*
X16577205Y-11764650D02*
X16605777Y-11764650D01*
X16605777Y-11764650D02*
X16624824Y-11774174D01*
X16624824Y-11774174D02*
X16634348Y-11793222D01*
X16634348Y-11793222D02*
X16634348Y-11897984D01*
X16729586Y-11897984D02*
X16729586Y-11764650D01*
X16729586Y-11783698D02*
X16739110Y-11774174D01*
X16739110Y-11774174D02*
X16758158Y-11764650D01*
X16758158Y-11764650D02*
X16786729Y-11764650D01*
X16786729Y-11764650D02*
X16805777Y-11774174D01*
X16805777Y-11774174D02*
X16815301Y-11793222D01*
X16815301Y-11793222D02*
X16815301Y-11897984D01*
X16815301Y-11793222D02*
X16824825Y-11774174D01*
X16824825Y-11774174D02*
X16843872Y-11764650D01*
X16843872Y-11764650D02*
X16872444Y-11764650D01*
X16872444Y-11764650D02*
X16891491Y-11774174D01*
X16891491Y-11774174D02*
X16901015Y-11793222D01*
X16901015Y-11793222D02*
X16901015Y-11897984D01*
X17291491Y-11688460D02*
X17120063Y-11945603D01*
X17548634Y-11697984D02*
X17567682Y-11697984D01*
X17567682Y-11697984D02*
X17586729Y-11707508D01*
X17586729Y-11707508D02*
X17596253Y-11717031D01*
X17596253Y-11717031D02*
X17605777Y-11736079D01*
X17605777Y-11736079D02*
X17615301Y-11774174D01*
X17615301Y-11774174D02*
X17615301Y-11821793D01*
X17615301Y-11821793D02*
X17605777Y-11859888D01*
X17605777Y-11859888D02*
X17596253Y-11878936D01*
X17596253Y-11878936D02*
X17586729Y-11888460D01*
X17586729Y-11888460D02*
X17567682Y-11897984D01*
X17567682Y-11897984D02*
X17548634Y-11897984D01*
X17548634Y-11897984D02*
X17529587Y-11888460D01*
X17529587Y-11888460D02*
X17520063Y-11878936D01*
X17520063Y-11878936D02*
X17510539Y-11859888D01*
X17510539Y-11859888D02*
X17501015Y-11821793D01*
X17501015Y-11821793D02*
X17501015Y-11774174D01*
X17501015Y-11774174D02*
X17510539Y-11736079D01*
X17510539Y-11736079D02*
X17520063Y-11717031D01*
X17520063Y-11717031D02*
X17529587Y-11707508D01*
X17529587Y-11707508D02*
X17548634Y-11697984D01*
X17701015Y-11878936D02*
X17710539Y-11888460D01*
X17710539Y-11888460D02*
X17701015Y-11897984D01*
X17701015Y-11897984D02*
X17691491Y-11888460D01*
X17691491Y-11888460D02*
X17701015Y-11878936D01*
X17701015Y-11878936D02*
X17701015Y-11897984D01*
X17834348Y-11697984D02*
X17853396Y-11697984D01*
X17853396Y-11697984D02*
X17872444Y-11707508D01*
X17872444Y-11707508D02*
X17881968Y-11717031D01*
X17881968Y-11717031D02*
X17891491Y-11736079D01*
X17891491Y-11736079D02*
X17901015Y-11774174D01*
X17901015Y-11774174D02*
X17901015Y-11821793D01*
X17901015Y-11821793D02*
X17891491Y-11859888D01*
X17891491Y-11859888D02*
X17881968Y-11878936D01*
X17881968Y-11878936D02*
X17872444Y-11888460D01*
X17872444Y-11888460D02*
X17853396Y-11897984D01*
X17853396Y-11897984D02*
X17834348Y-11897984D01*
X17834348Y-11897984D02*
X17815301Y-11888460D01*
X17815301Y-11888460D02*
X17805777Y-11878936D01*
X17805777Y-11878936D02*
X17796253Y-11859888D01*
X17796253Y-11859888D02*
X17786729Y-11821793D01*
X17786729Y-11821793D02*
X17786729Y-11774174D01*
X17786729Y-11774174D02*
X17796253Y-11736079D01*
X17796253Y-11736079D02*
X17805777Y-11717031D01*
X17805777Y-11717031D02*
X17815301Y-11707508D01*
X17815301Y-11707508D02*
X17834348Y-11697984D01*
X17967682Y-11697984D02*
X18091491Y-11697984D01*
X18091491Y-11697984D02*
X18024825Y-11774174D01*
X18024825Y-11774174D02*
X18053396Y-11774174D01*
X18053396Y-11774174D02*
X18072444Y-11783698D01*
X18072444Y-11783698D02*
X18081968Y-11793222D01*
X18081968Y-11793222D02*
X18091491Y-11812269D01*
X18091491Y-11812269D02*
X18091491Y-11859888D01*
X18091491Y-11859888D02*
X18081968Y-11878936D01*
X18081968Y-11878936D02*
X18072444Y-11888460D01*
X18072444Y-11888460D02*
X18053396Y-11897984D01*
X18053396Y-11897984D02*
X17996253Y-11897984D01*
X17996253Y-11897984D02*
X17977206Y-11888460D01*
X17977206Y-11888460D02*
X17967682Y-11878936D01*
X18186729Y-11897984D02*
X18224825Y-11897984D01*
X18224825Y-11897984D02*
X18243872Y-11888460D01*
X18243872Y-11888460D02*
X18253396Y-11878936D01*
X18253396Y-11878936D02*
X18272444Y-11850365D01*
X18272444Y-11850365D02*
X18281968Y-11812269D01*
X18281968Y-11812269D02*
X18281968Y-11736079D01*
X18281968Y-11736079D02*
X18272444Y-11717031D01*
X18272444Y-11717031D02*
X18262920Y-11707508D01*
X18262920Y-11707508D02*
X18243872Y-11697984D01*
X18243872Y-11697984D02*
X18205777Y-11697984D01*
X18205777Y-11697984D02*
X18186729Y-11707508D01*
X18186729Y-11707508D02*
X18177206Y-11717031D01*
X18177206Y-11717031D02*
X18167682Y-11736079D01*
X18167682Y-11736079D02*
X18167682Y-11783698D01*
X18167682Y-11783698D02*
X18177206Y-11802746D01*
X18177206Y-11802746D02*
X18186729Y-11812269D01*
X18186729Y-11812269D02*
X18205777Y-11821793D01*
X18205777Y-11821793D02*
X18243872Y-11821793D01*
X18243872Y-11821793D02*
X18262920Y-11812269D01*
X18262920Y-11812269D02*
X18272444Y-11802746D01*
X18272444Y-11802746D02*
X18281968Y-11783698D01*
X18453396Y-11764650D02*
X18453396Y-11897984D01*
X18405777Y-11688460D02*
X18358158Y-11831317D01*
X18358158Y-11831317D02*
X18481968Y-11831317D01*
X18548634Y-11697984D02*
X18548634Y-11736079D01*
X18624825Y-11697984D02*
X18624825Y-11736079D01*
X18920063Y-11974174D02*
X18910539Y-11964650D01*
X18910539Y-11964650D02*
X18891491Y-11936079D01*
X18891491Y-11936079D02*
X18881968Y-11917031D01*
X18881968Y-11917031D02*
X18872444Y-11888460D01*
X18872444Y-11888460D02*
X18862920Y-11840841D01*
X18862920Y-11840841D02*
X18862920Y-11802746D01*
X18862920Y-11802746D02*
X18872444Y-11755127D01*
X18872444Y-11755127D02*
X18881968Y-11726555D01*
X18881968Y-11726555D02*
X18891491Y-11707508D01*
X18891491Y-11707508D02*
X18910539Y-11678936D01*
X18910539Y-11678936D02*
X18920063Y-11669412D01*
X19081968Y-11764650D02*
X19081968Y-11897984D01*
X19034349Y-11688460D02*
X18986730Y-11831317D01*
X18986730Y-11831317D02*
X19110539Y-11831317D01*
X19339111Y-11897984D02*
X19339111Y-11697984D01*
X19424825Y-11897984D02*
X19424825Y-11793222D01*
X19424825Y-11793222D02*
X19415301Y-11774174D01*
X19415301Y-11774174D02*
X19396253Y-11764650D01*
X19396253Y-11764650D02*
X19367682Y-11764650D01*
X19367682Y-11764650D02*
X19348634Y-11774174D01*
X19348634Y-11774174D02*
X19339111Y-11783698D01*
X19548634Y-11897984D02*
X19529587Y-11888460D01*
X19529587Y-11888460D02*
X19520063Y-11878936D01*
X19520063Y-11878936D02*
X19510539Y-11859888D01*
X19510539Y-11859888D02*
X19510539Y-11802746D01*
X19510539Y-11802746D02*
X19520063Y-11783698D01*
X19520063Y-11783698D02*
X19529587Y-11774174D01*
X19529587Y-11774174D02*
X19548634Y-11764650D01*
X19548634Y-11764650D02*
X19577206Y-11764650D01*
X19577206Y-11764650D02*
X19596253Y-11774174D01*
X19596253Y-11774174D02*
X19605777Y-11783698D01*
X19605777Y-11783698D02*
X19615301Y-11802746D01*
X19615301Y-11802746D02*
X19615301Y-11859888D01*
X19615301Y-11859888D02*
X19605777Y-11878936D01*
X19605777Y-11878936D02*
X19596253Y-11888460D01*
X19596253Y-11888460D02*
X19577206Y-11897984D01*
X19577206Y-11897984D02*
X19548634Y-11897984D01*
X19729587Y-11897984D02*
X19710539Y-11888460D01*
X19710539Y-11888460D02*
X19701015Y-11869412D01*
X19701015Y-11869412D02*
X19701015Y-11697984D01*
X19881968Y-11888460D02*
X19862920Y-11897984D01*
X19862920Y-11897984D02*
X19824825Y-11897984D01*
X19824825Y-11897984D02*
X19805777Y-11888460D01*
X19805777Y-11888460D02*
X19796253Y-11869412D01*
X19796253Y-11869412D02*
X19796253Y-11793222D01*
X19796253Y-11793222D02*
X19805777Y-11774174D01*
X19805777Y-11774174D02*
X19824825Y-11764650D01*
X19824825Y-11764650D02*
X19862920Y-11764650D01*
X19862920Y-11764650D02*
X19881968Y-11774174D01*
X19881968Y-11774174D02*
X19891492Y-11793222D01*
X19891492Y-11793222D02*
X19891492Y-11812269D01*
X19891492Y-11812269D02*
X19796253Y-11831317D01*
X19967682Y-11888460D02*
X19986730Y-11897984D01*
X19986730Y-11897984D02*
X20024825Y-11897984D01*
X20024825Y-11897984D02*
X20043873Y-11888460D01*
X20043873Y-11888460D02*
X20053396Y-11869412D01*
X20053396Y-11869412D02*
X20053396Y-11859888D01*
X20053396Y-11859888D02*
X20043873Y-11840841D01*
X20043873Y-11840841D02*
X20024825Y-11831317D01*
X20024825Y-11831317D02*
X19996253Y-11831317D01*
X19996253Y-11831317D02*
X19977206Y-11821793D01*
X19977206Y-11821793D02*
X19967682Y-11802746D01*
X19967682Y-11802746D02*
X19967682Y-11793222D01*
X19967682Y-11793222D02*
X19977206Y-11774174D01*
X19977206Y-11774174D02*
X19996253Y-11764650D01*
X19996253Y-11764650D02*
X20024825Y-11764650D01*
X20024825Y-11764650D02*
X20043873Y-11774174D01*
X20120063Y-11974174D02*
X20129587Y-11964650D01*
X20129587Y-11964650D02*
X20148634Y-11936079D01*
X20148634Y-11936079D02*
X20158158Y-11917031D01*
X20158158Y-11917031D02*
X20167682Y-11888460D01*
X20167682Y-11888460D02*
X20177206Y-11840841D01*
X20177206Y-11840841D02*
X20177206Y-11802746D01*
X20177206Y-11802746D02*
X20167682Y-11755127D01*
X20167682Y-11755127D02*
X20158158Y-11726555D01*
X20158158Y-11726555D02*
X20148634Y-11707508D01*
X20148634Y-11707508D02*
X20129587Y-11678936D01*
X20129587Y-11678936D02*
X20120063Y-11669412D01*
M02*
