G04 #@! TF.GenerationSoftware,KiCad,Pcbnew,9.0.1-9.0.1-0~ubuntu24.04.1*
G04 #@! TF.CreationDate,2025-05-08T14:48:16+02:00*
G04 #@! TF.ProjectId,MP1584-5V,4d503135-3834-42d3-9556-2e6b69636164,rev?*
G04 #@! TF.SameCoordinates,Original*
G04 #@! TF.FileFunction,Copper,L1,Top*
G04 #@! TF.FilePolarity,Positive*
%FSLAX46Y46*%
G04 Gerber Fmt 4.6, Leading zero omitted, Abs format (unit mm)*
G04 Created by KiCad (PCBNEW 9.0.1-9.0.1-0~ubuntu24.04.1) date 2025-05-08 14:48:16*
%MOMM*%
%LPD*%
G01*
G04 APERTURE LIST*
G04 Aperture macros list*
%AMRoundRect*
0 Rectangle with rounded corners*
0 $1 Rounding radius*
0 $2 $3 $4 $5 $6 $7 $8 $9 X,Y pos of 4 corners*
0 Add a 4 corners polygon primitive as box body*
4,1,4,$2,$3,$4,$5,$6,$7,$8,$9,$2,$3,0*
0 Add four circle primitives for the rounded corners*
1,1,$1+$1,$2,$3*
1,1,$1+$1,$4,$5*
1,1,$1+$1,$6,$7*
1,1,$1+$1,$8,$9*
0 Add four rect primitives between the rounded corners*
20,1,$1+$1,$2,$3,$4,$5,0*
20,1,$1+$1,$4,$5,$6,$7,0*
20,1,$1+$1,$6,$7,$8,$9,0*
20,1,$1+$1,$8,$9,$2,$3,0*%
G04 Aperture macros list end*
G04 #@! TA.AperFunction,SMDPad,CuDef*
%ADD10RoundRect,0.201000X-0.749000X-0.469000X0.749000X-0.469000X0.749000X0.469000X-0.749000X0.469000X0*%
G04 #@! TD*
G04 #@! TA.AperFunction,SMDPad,CuDef*
%ADD11RoundRect,0.200000X0.200000X0.275000X-0.200000X0.275000X-0.200000X-0.275000X0.200000X-0.275000X0*%
G04 #@! TD*
G04 #@! TA.AperFunction,ComponentPad*
%ADD12RoundRect,0.250000X0.750000X-0.600000X0.750000X0.600000X-0.750000X0.600000X-0.750000X-0.600000X0*%
G04 #@! TD*
G04 #@! TA.AperFunction,ComponentPad*
%ADD13O,2.000000X1.700000*%
G04 #@! TD*
G04 #@! TA.AperFunction,SMDPad,CuDef*
%ADD14RoundRect,0.225000X-0.225000X-0.250000X0.225000X-0.250000X0.225000X0.250000X-0.225000X0.250000X0*%
G04 #@! TD*
G04 #@! TA.AperFunction,SMDPad,CuDef*
%ADD15RoundRect,0.200000X0.275000X-0.200000X0.275000X0.200000X-0.275000X0.200000X-0.275000X-0.200000X0*%
G04 #@! TD*
G04 #@! TA.AperFunction,SMDPad,CuDef*
%ADD16RoundRect,0.200000X-0.200000X-0.275000X0.200000X-0.275000X0.200000X0.275000X-0.200000X0.275000X0*%
G04 #@! TD*
G04 #@! TA.AperFunction,SMDPad,CuDef*
%ADD17RoundRect,0.330000X0.770000X-2.170000X0.770000X2.170000X-0.770000X2.170000X-0.770000X-2.170000X0*%
G04 #@! TD*
G04 #@! TA.AperFunction,ComponentPad*
%ADD18RoundRect,0.250000X-0.750000X0.600000X-0.750000X-0.600000X0.750000X-0.600000X0.750000X0.600000X0*%
G04 #@! TD*
G04 #@! TA.AperFunction,SMDPad,CuDef*
%ADD19RoundRect,0.225000X0.250000X-0.225000X0.250000X0.225000X-0.250000X0.225000X-0.250000X-0.225000X0*%
G04 #@! TD*
G04 #@! TA.AperFunction,SMDPad,CuDef*
%ADD20RoundRect,0.250000X0.250000X0.475000X-0.250000X0.475000X-0.250000X-0.475000X0.250000X-0.475000X0*%
G04 #@! TD*
G04 #@! TA.AperFunction,SMDPad,CuDef*
%ADD21RoundRect,0.152500X-0.152500X0.647500X-0.152500X-0.647500X0.152500X-0.647500X0.152500X0.647500X0*%
G04 #@! TD*
G04 #@! TA.AperFunction,SMDPad,CuDef*
%ADD22RoundRect,0.250000X-1.475000X-1.030000X1.475000X-1.030000X1.475000X1.030000X-1.475000X1.030000X0*%
G04 #@! TD*
G04 #@! TA.AperFunction,ViaPad*
%ADD23C,0.600000*%
G04 #@! TD*
G04 #@! TA.AperFunction,ViaPad*
%ADD24C,0.450000*%
G04 #@! TD*
G04 #@! TA.AperFunction,Conductor*
%ADD25C,0.600000*%
G04 #@! TD*
G04 #@! TA.AperFunction,Conductor*
%ADD26C,0.500000*%
G04 #@! TD*
G04 APERTURE END LIST*
D10*
X166760000Y-96010000D03*
X166760000Y-100170000D03*
D11*
X156975000Y-84390000D03*
X155325000Y-84390000D03*
X159515000Y-96220000D03*
X157865000Y-96220000D03*
X164315000Y-86380000D03*
X162665000Y-86380000D03*
D12*
X161430000Y-105460000D03*
D13*
X161430000Y-102960000D03*
D14*
X161215000Y-98030000D03*
X162765000Y-98030000D03*
D15*
X160970000Y-86465000D03*
X160970000Y-84815000D03*
D16*
X155325000Y-86710000D03*
X156975000Y-86710000D03*
D17*
X166590000Y-87340000D03*
X176390000Y-87340000D03*
D18*
X170330000Y-102870000D03*
D13*
X170330000Y-105370000D03*
D19*
X158950000Y-86425000D03*
X158950000Y-84875000D03*
D14*
X164065000Y-94050000D03*
X165615000Y-94050000D03*
D20*
X173400000Y-96190000D03*
X171500000Y-96190000D03*
D21*
X162590000Y-88950000D03*
X161320000Y-88950000D03*
X160050000Y-88950000D03*
X158780000Y-88950000D03*
X158780000Y-94350000D03*
X160050000Y-94350000D03*
X161320000Y-94350000D03*
X162590000Y-94350000D03*
D22*
X160685000Y-91650000D03*
D15*
X157040000Y-89925000D03*
X157040000Y-88275000D03*
D23*
X164470000Y-99000000D03*
D24*
X155835000Y-108175400D03*
D23*
X161910000Y-90900000D03*
X159510000Y-92500000D03*
D24*
X154525000Y-103175000D03*
D23*
X160310000Y-92500000D03*
X159510000Y-90900000D03*
X157850000Y-91760000D03*
X170010000Y-97020000D03*
D24*
X154525000Y-93175000D03*
D23*
X157050000Y-93360000D03*
D24*
X154525000Y-83175000D03*
X162800000Y-83950000D03*
X167400000Y-108190000D03*
X156700000Y-81950000D03*
X158700000Y-81950000D03*
D23*
X157050000Y-92560000D03*
X159510000Y-91700000D03*
X170020000Y-95260000D03*
D24*
X154525000Y-95175000D03*
X154525000Y-101175000D03*
X154525000Y-97175000D03*
D23*
X160310000Y-90900000D03*
X170020000Y-96140000D03*
D24*
X154525000Y-107175000D03*
D23*
X160310000Y-91700000D03*
X164480000Y-98120000D03*
D24*
X162800000Y-81950000D03*
D23*
X161110000Y-91700000D03*
D24*
X175020000Y-108190000D03*
X172480000Y-108190000D03*
D23*
X157850000Y-93360000D03*
D24*
X154525000Y-99175000D03*
D23*
X161110000Y-90900000D03*
D24*
X160700000Y-81950000D03*
D23*
X161910000Y-92500000D03*
D24*
X158375000Y-108175400D03*
D23*
X161910000Y-91700000D03*
X161110000Y-92500000D03*
X157050000Y-91760000D03*
X157850000Y-90960000D03*
X157050000Y-90960000D03*
X157850000Y-92560000D03*
D24*
X154525000Y-89175000D03*
X169940000Y-108190000D03*
X154525000Y-91175000D03*
X154525000Y-105175000D03*
X160915000Y-108175400D03*
D23*
X164480000Y-97240000D03*
D24*
X161200000Y-96770000D03*
X164320000Y-87450000D03*
X158010000Y-89940000D03*
D25*
X156985000Y-84380000D02*
X156975000Y-84390000D01*
X158455000Y-84380000D02*
X156985000Y-84380000D01*
X158950000Y-84875000D02*
X158455000Y-84380000D01*
X158950000Y-86425000D02*
X159070000Y-86425000D01*
X160085000Y-88915000D02*
X160050000Y-88950000D01*
X160070000Y-87425000D02*
X160070000Y-88795000D01*
X160070000Y-88795000D02*
X160085000Y-88810000D01*
X159070000Y-86425000D02*
X160070000Y-87425000D01*
X160085000Y-88810000D02*
X160085000Y-88915000D01*
D26*
X164065000Y-94050000D02*
X163855000Y-94050000D01*
X163855000Y-94050000D02*
X163815000Y-94010000D01*
X163815000Y-94010000D02*
X162930000Y-94010000D01*
X162930000Y-94010000D02*
X162590000Y-94350000D01*
X156955000Y-88190000D02*
X157040000Y-88275000D01*
X156965000Y-86710000D02*
X156955000Y-86720000D01*
X156975000Y-86710000D02*
X156965000Y-86710000D01*
X158185000Y-88355000D02*
X158780000Y-88950000D01*
X157040000Y-88275000D02*
X157120000Y-88355000D01*
X157120000Y-88355000D02*
X158185000Y-88355000D01*
X156955000Y-86720000D02*
X156955000Y-88190000D01*
X161215000Y-86220000D02*
X160970000Y-86465000D01*
X160950000Y-86485000D02*
X160950000Y-88580000D01*
X160970000Y-86465000D02*
X160950000Y-86485000D01*
X162505000Y-86220000D02*
X161215000Y-86220000D01*
X162665000Y-86380000D02*
X162505000Y-86220000D01*
X160950000Y-88580000D02*
X161320000Y-88950000D01*
X160072500Y-95937500D02*
X160072500Y-94637500D01*
X160050000Y-94615000D02*
X160050000Y-94350000D01*
X159610000Y-96400000D02*
X160072500Y-95937500D01*
X160072500Y-94637500D02*
X160050000Y-94615000D01*
X164320000Y-86385000D02*
X164315000Y-86380000D01*
X164320000Y-87450000D02*
X164320000Y-86385000D01*
X157055000Y-89940000D02*
X157040000Y-89925000D01*
X158010000Y-89940000D02*
X157055000Y-89940000D01*
G04 #@! TA.AperFunction,Conductor*
G36*
X171562068Y-94229685D02*
G01*
X171574514Y-94238826D01*
X171743768Y-94380180D01*
X171782605Y-94438262D01*
X171783876Y-94508120D01*
X171775000Y-94523395D01*
X171775000Y-94888638D01*
X171755315Y-94955677D01*
X171750000Y-94962272D01*
X171750000Y-97414999D01*
X171765229Y-97430228D01*
X171780403Y-97434684D01*
X171790104Y-97441598D01*
X172365741Y-97895129D01*
X172406218Y-97952080D01*
X172412992Y-97994047D01*
X172390596Y-99824146D01*
X172370092Y-99890940D01*
X172353748Y-99910845D01*
X171884672Y-100374216D01*
X171823145Y-100407325D01*
X171797529Y-100410000D01*
X170011983Y-100410000D01*
X169345749Y-101074496D01*
X169118404Y-101301248D01*
X169110000Y-103599952D01*
X169110000Y-104505682D01*
X169090315Y-104572721D01*
X169086318Y-104578567D01*
X169025379Y-104662442D01*
X168928904Y-104851782D01*
X168863242Y-105053870D01*
X168863242Y-105053873D01*
X168852769Y-105120000D01*
X169896988Y-105120000D01*
X169864075Y-105177007D01*
X169830000Y-105304174D01*
X169830000Y-105435826D01*
X169864075Y-105562993D01*
X169896988Y-105620000D01*
X168852769Y-105620000D01*
X168863242Y-105686126D01*
X168863242Y-105686129D01*
X168928904Y-105888217D01*
X169025379Y-106077557D01*
X169150272Y-106249459D01*
X169150276Y-106249464D01*
X169300535Y-106399723D01*
X169300540Y-106399727D01*
X169472442Y-106524620D01*
X169661782Y-106621095D01*
X169863870Y-106686757D01*
X170073754Y-106720000D01*
X170080000Y-106720000D01*
X170080000Y-105803012D01*
X170137007Y-105835925D01*
X170264174Y-105870000D01*
X170395826Y-105870000D01*
X170522993Y-105835925D01*
X170580000Y-105803012D01*
X170580000Y-106720000D01*
X170586246Y-106720000D01*
X170796127Y-106686757D01*
X170796130Y-106686757D01*
X170998217Y-106621095D01*
X171187557Y-106524620D01*
X171359459Y-106399727D01*
X171359464Y-106399723D01*
X171509723Y-106249464D01*
X171509727Y-106249459D01*
X171634620Y-106077557D01*
X171731095Y-105888217D01*
X171796757Y-105686129D01*
X171796757Y-105686126D01*
X171807231Y-105620000D01*
X170763012Y-105620000D01*
X170795925Y-105562993D01*
X170830000Y-105435826D01*
X170830000Y-105304174D01*
X170795925Y-105177007D01*
X170763012Y-105120000D01*
X171627819Y-105120000D01*
X171629668Y-105120543D01*
X171677762Y-105120543D01*
X171807761Y-105120543D01*
X171807762Y-105120543D01*
X172641558Y-104039826D01*
X172698091Y-103998776D01*
X172739398Y-103991576D01*
X177105397Y-103980117D01*
X177172487Y-103999626D01*
X177184457Y-104008322D01*
X177624235Y-104369782D01*
X177663527Y-104427557D01*
X177669500Y-104465577D01*
X177669500Y-106496249D01*
X177669274Y-106503736D01*
X177653551Y-106763660D01*
X177651746Y-106778524D01*
X177605485Y-107030965D01*
X177601901Y-107045505D01*
X177525551Y-107290519D01*
X177520242Y-107304519D01*
X177414911Y-107538555D01*
X177407952Y-107551814D01*
X177275182Y-107771443D01*
X177266676Y-107783766D01*
X177108398Y-107985792D01*
X177098468Y-107997000D01*
X176917000Y-108178468D01*
X176905792Y-108188398D01*
X176703766Y-108346676D01*
X176691443Y-108355182D01*
X176471814Y-108487952D01*
X176458555Y-108494911D01*
X176224519Y-108600242D01*
X176210519Y-108605551D01*
X175965505Y-108681901D01*
X175950965Y-108685485D01*
X175698524Y-108731746D01*
X175683660Y-108733551D01*
X175423736Y-108749274D01*
X175416249Y-108749500D01*
X166720034Y-108749500D01*
X166652995Y-108729815D01*
X166632475Y-108713303D01*
X166604579Y-108685485D01*
X165942587Y-108025334D01*
X165909018Y-107964059D01*
X165906148Y-107936938D01*
X165908058Y-107538555D01*
X165933356Y-102260000D01*
X164868494Y-101403811D01*
X164788011Y-101339100D01*
X165944449Y-101339100D01*
X165954343Y-101339999D01*
X167565653Y-101339999D01*
X167575547Y-101339099D01*
X166760000Y-100523552D01*
X165944449Y-101339100D01*
X164788011Y-101339100D01*
X162796894Y-99738166D01*
X162680202Y-99644341D01*
X165310000Y-99644341D01*
X165310000Y-100695668D01*
X165316416Y-100766282D01*
X165316418Y-100766290D01*
X165367062Y-100928810D01*
X165455132Y-101074496D01*
X165478542Y-101097905D01*
X166406448Y-100170000D01*
X167113552Y-100170000D01*
X168041457Y-101097905D01*
X168064867Y-101074496D01*
X168152938Y-100928810D01*
X168203581Y-100766288D01*
X168209999Y-100695658D01*
X168209999Y-99644331D01*
X168203583Y-99573717D01*
X168203581Y-99573709D01*
X168152937Y-99411189D01*
X168064867Y-99265503D01*
X168041458Y-99242094D01*
X167113552Y-100170000D01*
X166406448Y-100170000D01*
X165478542Y-99242094D01*
X165455132Y-99265503D01*
X165367061Y-99411189D01*
X165316418Y-99573711D01*
X165310000Y-99644341D01*
X162680202Y-99644341D01*
X162556300Y-99544719D01*
X162516389Y-99487370D01*
X162510000Y-99448082D01*
X162510000Y-99061360D01*
X162515000Y-99044332D01*
X162515000Y-99004999D01*
X163015000Y-99004999D01*
X163038308Y-99004999D01*
X163038322Y-99004998D01*
X163078455Y-99000898D01*
X165944451Y-99000898D01*
X165944451Y-99000900D01*
X166760000Y-99816448D01*
X166760001Y-99816448D01*
X167575549Y-99000898D01*
X167575548Y-99000897D01*
X167565661Y-99000000D01*
X165954338Y-99000000D01*
X165944451Y-99000898D01*
X163078455Y-99000898D01*
X163137607Y-98994855D01*
X163298481Y-98941547D01*
X163298492Y-98941542D01*
X163321607Y-98927285D01*
X163442728Y-98852575D01*
X163442732Y-98852572D01*
X163562572Y-98732732D01*
X163562575Y-98732728D01*
X163651542Y-98588492D01*
X163651547Y-98588481D01*
X163704855Y-98427606D01*
X163714999Y-98328322D01*
X163715000Y-98328309D01*
X163715000Y-98280000D01*
X163015000Y-98280000D01*
X163015000Y-99004999D01*
X162515000Y-99004999D01*
X162515000Y-97780000D01*
X163015000Y-97780000D01*
X163714999Y-97780000D01*
X163714999Y-97731692D01*
X163714998Y-97731677D01*
X163704855Y-97632392D01*
X163651547Y-97471518D01*
X163651542Y-97471507D01*
X163562575Y-97327271D01*
X163562572Y-97327267D01*
X163442732Y-97207427D01*
X163442728Y-97207424D01*
X163298492Y-97118457D01*
X163298481Y-97118452D01*
X163137606Y-97065144D01*
X163038322Y-97055000D01*
X163015000Y-97055000D01*
X163015000Y-97780000D01*
X162515000Y-97780000D01*
X162515000Y-97028960D01*
X162512834Y-97024994D01*
X162512832Y-97024975D01*
X162512829Y-97024970D01*
X162512829Y-97024956D01*
X162510000Y-96998636D01*
X162510000Y-96757939D01*
X162529685Y-96690900D01*
X162542248Y-96674527D01*
X162573102Y-96640588D01*
X162632763Y-96604224D01*
X162664854Y-96600000D01*
X164995872Y-96600000D01*
X165062911Y-96619685D01*
X165108666Y-96672489D01*
X165110581Y-96676907D01*
X165670000Y-98040000D01*
X168690000Y-98040000D01*
X169240000Y-97320000D01*
X169240000Y-96714986D01*
X170500001Y-96714986D01*
X170510494Y-96817697D01*
X170565641Y-96984119D01*
X170565643Y-96984124D01*
X170657684Y-97133345D01*
X170781654Y-97257315D01*
X170930875Y-97349356D01*
X170930880Y-97349358D01*
X171097302Y-97404505D01*
X171097309Y-97404506D01*
X171200019Y-97414999D01*
X171249999Y-97414998D01*
X171250000Y-97414998D01*
X171250000Y-96440000D01*
X170500001Y-96440000D01*
X170500001Y-96714986D01*
X169240000Y-96714986D01*
X169240000Y-95665013D01*
X170500000Y-95665013D01*
X170500000Y-95940000D01*
X171250000Y-95940000D01*
X171250000Y-94965000D01*
X171249999Y-94964999D01*
X171200029Y-94965000D01*
X171200011Y-94965001D01*
X171097302Y-94975494D01*
X170930880Y-95030641D01*
X170930875Y-95030643D01*
X170781654Y-95122684D01*
X170657684Y-95246654D01*
X170565643Y-95395875D01*
X170565641Y-95395880D01*
X170510494Y-95562302D01*
X170510493Y-95562309D01*
X170500000Y-95665013D01*
X169240000Y-95665013D01*
X169240000Y-94668492D01*
X169259685Y-94601453D01*
X169297976Y-94563531D01*
X169386066Y-94508120D01*
X169829733Y-94229039D01*
X169895757Y-94210000D01*
X171495029Y-94210000D01*
X171562068Y-94229685D01*
G37*
G04 #@! TD.AperFunction*
G04 #@! TA.AperFunction,Conductor*
G36*
X175423736Y-81250726D02*
G01*
X175683662Y-81266448D01*
X175698524Y-81268253D01*
X175769528Y-81281264D01*
X175950969Y-81314515D01*
X175965498Y-81318096D01*
X176210523Y-81394449D01*
X176224516Y-81399755D01*
X176458562Y-81505091D01*
X176471808Y-81512044D01*
X176691449Y-81644821D01*
X176703760Y-81653319D01*
X176717810Y-81664326D01*
X176905792Y-81811601D01*
X176917000Y-81821531D01*
X177098468Y-82002999D01*
X177108398Y-82014207D01*
X177266676Y-82216233D01*
X177275180Y-82228553D01*
X177315107Y-82294601D01*
X177407952Y-82448185D01*
X177414911Y-82461444D01*
X177520242Y-82695480D01*
X177525551Y-82709480D01*
X177601901Y-82954494D01*
X177605485Y-82969034D01*
X177651746Y-83221475D01*
X177653551Y-83236339D01*
X177669274Y-83496263D01*
X177669500Y-83503750D01*
X177669500Y-83919137D01*
X177649815Y-83986176D01*
X177633181Y-84006818D01*
X177335539Y-84304459D01*
X177274216Y-84337944D01*
X177239479Y-84340495D01*
X177232170Y-84340000D01*
X175547830Y-84340000D01*
X175507284Y-84342749D01*
X175332086Y-84386320D01*
X175170356Y-84466530D01*
X175170354Y-84466532D01*
X175029641Y-84579640D01*
X175029640Y-84579641D01*
X174916532Y-84720354D01*
X174916530Y-84720356D01*
X174836320Y-84882086D01*
X174792749Y-85057284D01*
X174790000Y-85097830D01*
X174790000Y-85479999D01*
X174809336Y-85488009D01*
X174810414Y-85487421D01*
X174880106Y-85492403D01*
X174924457Y-85520905D01*
X176479095Y-87075543D01*
X176512580Y-87136866D01*
X176507596Y-87206558D01*
X176479095Y-87250905D01*
X176390000Y-87340000D01*
X176479095Y-87429095D01*
X176512580Y-87490418D01*
X176507596Y-87560110D01*
X176479095Y-87604457D01*
X174924457Y-89159094D01*
X174863134Y-89192579D01*
X174816046Y-89189211D01*
X174790000Y-89200000D01*
X174790000Y-89582169D01*
X174792749Y-89622715D01*
X174836320Y-89797913D01*
X174916530Y-89959643D01*
X174916532Y-89959645D01*
X175029640Y-90100358D01*
X175029641Y-90100359D01*
X175170354Y-90213467D01*
X175170356Y-90213469D01*
X175332086Y-90293679D01*
X175507284Y-90337250D01*
X175547830Y-90340000D01*
X177232170Y-90340000D01*
X177272715Y-90337250D01*
X177447911Y-90293680D01*
X177490405Y-90272605D01*
X177559210Y-90260453D01*
X177623662Y-90287429D01*
X177663298Y-90344968D01*
X177669500Y-90383693D01*
X177669500Y-103396601D01*
X177649815Y-103463640D01*
X177634295Y-103483154D01*
X177354547Y-103770150D01*
X177293657Y-103804416D01*
X177231129Y-103802665D01*
X177162785Y-103782791D01*
X177162780Y-103782790D01*
X177104863Y-103774618D01*
X177104858Y-103774618D01*
X172738859Y-103786077D01*
X172704110Y-103789128D01*
X172704106Y-103789128D01*
X172704102Y-103789129D01*
X172662676Y-103796350D01*
X172661453Y-103796568D01*
X172661450Y-103796568D01*
X172623905Y-103812604D01*
X172554521Y-103820832D01*
X172491704Y-103790243D01*
X172488972Y-103787678D01*
X171867770Y-103186549D01*
X171833283Y-103125784D01*
X171832955Y-103122955D01*
X171830000Y-103120000D01*
X170763012Y-103120000D01*
X170795925Y-103062993D01*
X170830000Y-102935826D01*
X170830000Y-102804174D01*
X170795925Y-102677007D01*
X170763012Y-102620000D01*
X171829999Y-102620000D01*
X171829999Y-102220028D01*
X171829998Y-102220013D01*
X171819505Y-102117302D01*
X171764358Y-101950880D01*
X171764356Y-101950875D01*
X171672315Y-101801654D01*
X171548345Y-101677684D01*
X171399124Y-101585643D01*
X171399119Y-101585641D01*
X171232697Y-101530494D01*
X171232690Y-101530493D01*
X171129986Y-101520000D01*
X170580000Y-101520000D01*
X170580000Y-102436988D01*
X170522993Y-102404075D01*
X170395826Y-102370000D01*
X170264174Y-102370000D01*
X170137007Y-102404075D01*
X170080000Y-102436988D01*
X170080000Y-101498119D01*
X170072834Y-101484996D01*
X170070000Y-101458638D01*
X170070000Y-101045770D01*
X170089685Y-100978731D01*
X170103732Y-100960755D01*
X170392179Y-100654485D01*
X170452471Y-100619178D01*
X170482447Y-100615500D01*
X171797523Y-100615500D01*
X171797529Y-100615500D01*
X171818873Y-100614389D01*
X171844489Y-100611714D01*
X171920525Y-100588287D01*
X171982052Y-100555178D01*
X172029091Y-100520413D01*
X172498167Y-100057042D01*
X172512569Y-100041253D01*
X172528913Y-100021348D01*
X172566544Y-99951246D01*
X172587048Y-99884452D01*
X172596081Y-99826661D01*
X172618477Y-97996562D01*
X172618247Y-97993458D01*
X172632923Y-97925148D01*
X172655060Y-97895788D01*
X173140000Y-97420000D01*
X173139999Y-97420000D01*
X173145096Y-97414999D01*
X173650000Y-97414999D01*
X173699972Y-97414999D01*
X173699986Y-97414998D01*
X173802697Y-97404505D01*
X173969119Y-97349358D01*
X173969124Y-97349356D01*
X174118345Y-97257315D01*
X174242315Y-97133345D01*
X174334356Y-96984124D01*
X174334358Y-96984119D01*
X174389505Y-96817697D01*
X174389506Y-96817690D01*
X174399999Y-96714986D01*
X174400000Y-96714973D01*
X174400000Y-96440000D01*
X173650000Y-96440000D01*
X173650000Y-97414999D01*
X173145096Y-97414999D01*
X173150000Y-97410188D01*
X173150000Y-95940000D01*
X173650000Y-95940000D01*
X174399999Y-95940000D01*
X174399999Y-95665028D01*
X174399998Y-95665013D01*
X174389505Y-95562302D01*
X174334358Y-95395880D01*
X174334356Y-95395875D01*
X174242315Y-95246654D01*
X174118345Y-95122684D01*
X173969124Y-95030643D01*
X173969119Y-95030641D01*
X173802697Y-94975494D01*
X173802690Y-94975493D01*
X173699986Y-94965000D01*
X173650000Y-94965000D01*
X173650000Y-95940000D01*
X173150000Y-95940000D01*
X173150000Y-94974710D01*
X173143874Y-94970000D01*
X173150000Y-94970000D01*
X173107571Y-94942086D01*
X173107567Y-94942083D01*
X172603703Y-94610594D01*
X172449520Y-94509157D01*
X172404334Y-94455868D01*
X172393673Y-94405301D01*
X172406334Y-88586448D01*
X174790000Y-88586448D01*
X176036448Y-87340000D01*
X176036448Y-87339999D01*
X174790000Y-86093551D01*
X174790000Y-88586448D01*
X172406334Y-88586448D01*
X172419878Y-82361594D01*
X172439709Y-82294601D01*
X172461813Y-82268908D01*
X173452448Y-81394448D01*
X173580360Y-81281537D01*
X173643647Y-81251930D01*
X173662421Y-81250500D01*
X175375830Y-81250500D01*
X175416249Y-81250500D01*
X175423736Y-81250726D01*
G37*
G04 #@! TD.AperFunction*
G04 #@! TA.AperFunction,Conductor*
G36*
X161582458Y-93449685D02*
G01*
X161628213Y-93502489D01*
X161639418Y-93554579D01*
X161630027Y-95564072D01*
X161629404Y-95575913D01*
X161486667Y-96993766D01*
X161465000Y-97047094D01*
X161465000Y-99004999D01*
X161470000Y-99009999D01*
X161470000Y-99010000D01*
X161470003Y-99010002D01*
X161483327Y-99023326D01*
X161490145Y-99024594D01*
X161503089Y-99032178D01*
X162319834Y-99579570D01*
X162324731Y-99584382D01*
X162328499Y-99585938D01*
X162352577Y-99611743D01*
X162381747Y-99653657D01*
X162381747Y-99653658D01*
X162387620Y-99662098D01*
X162387623Y-99662101D01*
X162387626Y-99662105D01*
X162427531Y-99704872D01*
X162551433Y-99804494D01*
X164205589Y-101134499D01*
X164659242Y-101499253D01*
X165382202Y-102080540D01*
X165680797Y-102320621D01*
X165720708Y-102377969D01*
X165727096Y-102417852D01*
X165710765Y-105825500D01*
X165700650Y-107935954D01*
X165700650Y-107935958D01*
X165701788Y-107958545D01*
X165701791Y-107958589D01*
X165704658Y-107985679D01*
X165704659Y-107985684D01*
X165728793Y-108062797D01*
X165762358Y-108124065D01*
X165762365Y-108124076D01*
X165797474Y-108170841D01*
X165797478Y-108170847D01*
X165866063Y-108239241D01*
X165899633Y-108300518D01*
X165902502Y-108327674D01*
X165900985Y-108626130D01*
X165880960Y-108693069D01*
X165827924Y-108738555D01*
X165776987Y-108749500D01*
X162123570Y-108749500D01*
X162056531Y-108729815D01*
X162010776Y-108677011D01*
X161999570Y-108625775D01*
X161995155Y-106634775D01*
X162014691Y-106567692D01*
X162067394Y-106521820D01*
X162119155Y-106510500D01*
X162234270Y-106510500D01*
X162264699Y-106507646D01*
X162264701Y-106507646D01*
X162328790Y-106485219D01*
X162392882Y-106462793D01*
X162502150Y-106382150D01*
X162582793Y-106272882D01*
X162605219Y-106208790D01*
X162627646Y-106144701D01*
X162627646Y-106144699D01*
X162630500Y-106114269D01*
X162630500Y-104805730D01*
X162627646Y-104775300D01*
X162627646Y-104775298D01*
X162582793Y-104647119D01*
X162582792Y-104647117D01*
X162521139Y-104563580D01*
X162502150Y-104537850D01*
X162392882Y-104457207D01*
X162392880Y-104457206D01*
X162264700Y-104412353D01*
X162234270Y-104409500D01*
X162234266Y-104409500D01*
X162225324Y-104409500D01*
X162158285Y-104389815D01*
X162112530Y-104337011D01*
X162102586Y-104267853D01*
X162131611Y-104204297D01*
X162169029Y-104175015D01*
X162287557Y-104114620D01*
X162459459Y-103989727D01*
X162459464Y-103989723D01*
X162609723Y-103839464D01*
X162609727Y-103839459D01*
X162734620Y-103667557D01*
X162831095Y-103478217D01*
X162896757Y-103276129D01*
X162896757Y-103276126D01*
X162907231Y-103210000D01*
X161863012Y-103210000D01*
X161895925Y-103152993D01*
X161930000Y-103025826D01*
X161930000Y-102894174D01*
X161895925Y-102767007D01*
X161863012Y-102710000D01*
X162907231Y-102710000D01*
X162896757Y-102643873D01*
X162896757Y-102643870D01*
X162831095Y-102441782D01*
X162734620Y-102252442D01*
X162609727Y-102080540D01*
X162609723Y-102080535D01*
X162459464Y-101930276D01*
X162459459Y-101930272D01*
X162287557Y-101805379D01*
X162098217Y-101708904D01*
X161896129Y-101643242D01*
X161686246Y-101610000D01*
X161680000Y-101610000D01*
X161680000Y-102526988D01*
X161622993Y-102494075D01*
X161495826Y-102460000D01*
X161364174Y-102460000D01*
X161237007Y-102494075D01*
X161180000Y-102526988D01*
X161180000Y-101610000D01*
X161173754Y-101610000D01*
X160963872Y-101643242D01*
X160963869Y-101643242D01*
X160761782Y-101708904D01*
X160572442Y-101805379D01*
X160400540Y-101930272D01*
X160400535Y-101930276D01*
X160250276Y-102080535D01*
X160250272Y-102080540D01*
X160125379Y-102252442D01*
X160028904Y-102441782D01*
X159963242Y-102643870D01*
X159963242Y-102643873D01*
X159952769Y-102710000D01*
X160996988Y-102710000D01*
X160964075Y-102767007D01*
X160930000Y-102894174D01*
X160930000Y-103025826D01*
X160964075Y-103152993D01*
X160996988Y-103210000D01*
X159960265Y-103210000D01*
X159939879Y-103208313D01*
X159683304Y-103165550D01*
X159681722Y-103164784D01*
X159679976Y-103164948D01*
X159650414Y-103149632D01*
X159620413Y-103135112D01*
X159618998Y-103133355D01*
X159617938Y-103132806D01*
X159596177Y-103105019D01*
X159508908Y-102953153D01*
X159492881Y-102902033D01*
X159340000Y-101130000D01*
X159013835Y-98328322D01*
X160265001Y-98328322D01*
X160275144Y-98427607D01*
X160328452Y-98588481D01*
X160328457Y-98588492D01*
X160417424Y-98732728D01*
X160417427Y-98732732D01*
X160537267Y-98852572D01*
X160537271Y-98852575D01*
X160681507Y-98941542D01*
X160681518Y-98941547D01*
X160842393Y-98994855D01*
X160941683Y-99004999D01*
X160965000Y-99004998D01*
X160965000Y-98280000D01*
X160265001Y-98280000D01*
X160265001Y-98328322D01*
X159013835Y-98328322D01*
X158956116Y-97832534D01*
X158961509Y-97801056D01*
X158965308Y-97769356D01*
X158967579Y-97765630D01*
X158967916Y-97763669D01*
X158983679Y-97739230D01*
X158989918Y-97731677D01*
X160265000Y-97731677D01*
X160265000Y-97780000D01*
X160965000Y-97780000D01*
X160965000Y-97054999D01*
X160941693Y-97055000D01*
X160941674Y-97055001D01*
X160842392Y-97065144D01*
X160681518Y-97118452D01*
X160681507Y-97118457D01*
X160537271Y-97207424D01*
X160537267Y-97207427D01*
X160417427Y-97327267D01*
X160417424Y-97327271D01*
X160328457Y-97471507D01*
X160328452Y-97471518D01*
X160275144Y-97632393D01*
X160265000Y-97731677D01*
X158989918Y-97731677D01*
X159510018Y-97102082D01*
X159532674Y-97080782D01*
X159774730Y-96904741D01*
X159828264Y-96882552D01*
X159840304Y-96880646D01*
X159953342Y-96823050D01*
X160043050Y-96733342D01*
X160048767Y-96722121D01*
X160086315Y-96678134D01*
X160950000Y-96050000D01*
X160970586Y-93552977D01*
X160990823Y-93486103D01*
X161044002Y-93440785D01*
X161094582Y-93430000D01*
X161515419Y-93430000D01*
X161582458Y-93449685D01*
G37*
G04 #@! TD.AperFunction*
G04 #@! TA.AperFunction,Conductor*
G36*
X170999465Y-81270185D02*
G01*
X171005488Y-81274310D01*
X172186552Y-82135580D01*
X172229120Y-82190985D01*
X172234977Y-82260609D01*
X172232391Y-82270964D01*
X172222830Y-82303265D01*
X172214378Y-82361144D01*
X172201912Y-88090328D01*
X172200834Y-88586001D01*
X172192094Y-92602276D01*
X172172263Y-92669272D01*
X172135971Y-92705779D01*
X170181352Y-93984273D01*
X170114473Y-94004496D01*
X170113475Y-94004500D01*
X169895757Y-94004500D01*
X169887712Y-94005636D01*
X169838819Y-94012545D01*
X169838815Y-94012546D01*
X169772798Y-94031583D01*
X169720311Y-94055092D01*
X169188558Y-94389582D01*
X169188546Y-94389591D01*
X169153375Y-94417515D01*
X169115072Y-94455448D01*
X169107156Y-94463737D01*
X169062512Y-94543551D01*
X169062509Y-94543556D01*
X169042826Y-94610588D01*
X169034500Y-94668495D01*
X169034500Y-97208547D01*
X169014815Y-97275586D01*
X169009039Y-97283820D01*
X168625603Y-97785773D01*
X168569265Y-97827098D01*
X168527064Y-97834500D01*
X168087561Y-97834500D01*
X168020522Y-97814815D01*
X167986125Y-97781822D01*
X167886055Y-97639501D01*
X167608195Y-97244322D01*
X167591456Y-97195007D01*
X166583224Y-96186776D01*
X166406448Y-96010000D01*
X167113552Y-96010000D01*
X168041457Y-96937905D01*
X168064867Y-96914496D01*
X168152938Y-96768810D01*
X168203581Y-96606288D01*
X168209999Y-96535658D01*
X168209999Y-95484331D01*
X168203583Y-95413717D01*
X168203581Y-95413709D01*
X168152937Y-95251189D01*
X168064867Y-95105503D01*
X168041458Y-95082094D01*
X167113552Y-96010000D01*
X166406448Y-96010000D01*
X165551448Y-95155000D01*
X165531972Y-95146933D01*
X165512061Y-95130887D01*
X165489884Y-95118153D01*
X165481198Y-95106015D01*
X165477569Y-95103091D01*
X165469350Y-95089462D01*
X165372397Y-94902481D01*
X165359014Y-94833907D01*
X165365000Y-94809739D01*
X165365000Y-94761448D01*
X165865000Y-94761448D01*
X166760000Y-95656448D01*
X167520127Y-94896320D01*
X167556445Y-94860000D01*
X167560000Y-94860000D01*
X167557930Y-94858514D01*
X167575547Y-94840897D01*
X167562865Y-94839746D01*
X167562952Y-94838780D01*
X167500552Y-94817316D01*
X167499969Y-94816900D01*
X166780000Y-94300000D01*
X166700000Y-94300000D01*
X165865000Y-94300000D01*
X165865000Y-94761448D01*
X165365000Y-94761448D01*
X165365000Y-93800000D01*
X165865000Y-93800000D01*
X166564999Y-93800000D01*
X166564999Y-93751692D01*
X166564998Y-93751677D01*
X166554855Y-93652392D01*
X166501547Y-93491518D01*
X166501542Y-93491507D01*
X166412575Y-93347271D01*
X166412572Y-93347267D01*
X166292732Y-93227427D01*
X166292728Y-93227424D01*
X166148492Y-93138457D01*
X166148481Y-93138452D01*
X165987606Y-93085144D01*
X165888322Y-93075000D01*
X165865000Y-93075000D01*
X165865000Y-93800000D01*
X165365000Y-93800000D01*
X165365000Y-93074999D01*
X165341693Y-93075000D01*
X165341674Y-93075001D01*
X165242396Y-93085143D01*
X165238710Y-93085933D01*
X165208595Y-93088609D01*
X164617221Y-93068748D01*
X164617221Y-93068747D01*
X163639036Y-93036640D01*
X163572678Y-93014767D01*
X163554211Y-92999160D01*
X163342476Y-92781447D01*
X163309850Y-92719668D01*
X163312221Y-92660658D01*
X163327221Y-92608617D01*
X163335256Y-92550683D01*
X163325721Y-90634119D01*
X163325243Y-90621083D01*
X163324166Y-90605376D01*
X163306985Y-90536084D01*
X163278646Y-90472219D01*
X163278644Y-90472215D01*
X163268897Y-90456685D01*
X163247555Y-90422675D01*
X162973684Y-90099647D01*
X162923760Y-90040762D01*
X162923748Y-90040750D01*
X162902638Y-90019269D01*
X162902634Y-90019264D01*
X162875357Y-89995307D01*
X162798155Y-89952684D01*
X162798157Y-89952684D01*
X162731173Y-89932826D01*
X162686394Y-89926269D01*
X162673296Y-89924351D01*
X162671891Y-89924347D01*
X162241186Y-89923225D01*
X162213419Y-89914993D01*
X162184966Y-89909583D01*
X162177619Y-89904379D01*
X162174198Y-89903365D01*
X162156170Y-89889186D01*
X162058826Y-89796835D01*
X162023741Y-89736417D01*
X162020173Y-89706483D01*
X162021777Y-89212308D01*
X164990000Y-89212308D01*
X164990000Y-89582169D01*
X164992749Y-89622715D01*
X165036320Y-89797913D01*
X165116530Y-89959643D01*
X165116532Y-89959645D01*
X165229640Y-90100358D01*
X165229641Y-90100359D01*
X165370354Y-90213467D01*
X165370356Y-90213469D01*
X165532086Y-90293679D01*
X165707284Y-90337250D01*
X165747830Y-90340000D01*
X167432170Y-90340000D01*
X167472715Y-90337250D01*
X167647913Y-90293679D01*
X167809643Y-90213469D01*
X167809645Y-90213467D01*
X167950358Y-90100359D01*
X167950359Y-90100358D01*
X168063467Y-89959645D01*
X168063469Y-89959643D01*
X168143679Y-89797913D01*
X168187250Y-89622715D01*
X168190000Y-89582169D01*
X168190000Y-89200000D01*
X168170659Y-89191989D01*
X168169578Y-89192580D01*
X168099886Y-89187594D01*
X168055542Y-89159094D01*
X166590000Y-87693552D01*
X165124457Y-89159094D01*
X165068852Y-89191192D01*
X164990000Y-89212308D01*
X162021777Y-89212308D01*
X162024845Y-88267457D01*
X162044747Y-88200486D01*
X162056797Y-88184778D01*
X162312859Y-87901140D01*
X162372391Y-87864572D01*
X162405421Y-87860236D01*
X164122022Y-87867572D01*
X164142165Y-87869309D01*
X164147921Y-87870283D01*
X164260691Y-87900500D01*
X164326451Y-87900500D01*
X164336726Y-87902239D01*
X164359145Y-87913159D01*
X164383072Y-87920185D01*
X164395721Y-87930975D01*
X164399540Y-87932835D01*
X164401305Y-87935737D01*
X164408476Y-87941854D01*
X164958448Y-88557077D01*
X164968099Y-88577375D01*
X164985920Y-88584757D01*
X164985921Y-88584757D01*
X164990001Y-88586447D01*
X166236449Y-87339999D01*
X166943552Y-87339999D01*
X166943552Y-87340000D01*
X168189999Y-88586448D01*
X168190000Y-88586447D01*
X168190000Y-86093552D01*
X168189999Y-86093551D01*
X166943552Y-87339999D01*
X166236449Y-87339999D01*
X166413224Y-87163224D01*
X168055542Y-85520905D01*
X168116865Y-85487420D01*
X168163955Y-85490787D01*
X168190000Y-85479999D01*
X168190000Y-85097830D01*
X168187250Y-85057284D01*
X168143679Y-84882086D01*
X168063469Y-84720356D01*
X168063467Y-84720354D01*
X167950359Y-84579641D01*
X167950358Y-84579640D01*
X167809645Y-84466532D01*
X167809643Y-84466530D01*
X167647913Y-84386320D01*
X167472715Y-84342749D01*
X167432170Y-84340000D01*
X165825509Y-84340000D01*
X165758470Y-84320315D01*
X165731494Y-84296853D01*
X165369611Y-83876059D01*
X165340823Y-83812395D01*
X165339626Y-83794921D01*
X165339864Y-83691620D01*
X165342880Y-82379511D01*
X165341727Y-82357289D01*
X165341632Y-82356399D01*
X165341648Y-82356307D01*
X165341594Y-82355614D01*
X165341777Y-82355599D01*
X165354108Y-82287654D01*
X165375205Y-82257689D01*
X166299350Y-81288910D01*
X166359867Y-81253989D01*
X166389074Y-81250500D01*
X170932426Y-81250500D01*
X170999465Y-81270185D01*
G37*
G04 #@! TD.AperFunction*
G04 #@! TA.AperFunction,Conductor*
G36*
X164075827Y-81270185D02*
G01*
X164096453Y-81286803D01*
X165026196Y-82216233D01*
X165101047Y-82291058D01*
X165134543Y-82352375D01*
X165137381Y-82379039D01*
X165131993Y-84723022D01*
X165112154Y-84790016D01*
X165095484Y-84810608D01*
X164350766Y-85552101D01*
X164289370Y-85585453D01*
X164263022Y-85588230D01*
X161938907Y-85583487D01*
X161871908Y-85563665D01*
X161826261Y-85510768D01*
X161816458Y-85441590D01*
X161833043Y-85395337D01*
X161888019Y-85304395D01*
X161938590Y-85142106D01*
X161945000Y-85071572D01*
X161945000Y-85065000D01*
X161094000Y-85065000D01*
X161026961Y-85045315D01*
X160981206Y-84992511D01*
X160970000Y-84941000D01*
X160970000Y-84815000D01*
X160844000Y-84815000D01*
X160776961Y-84795315D01*
X160731206Y-84742511D01*
X160720000Y-84691000D01*
X160720000Y-84565000D01*
X161220000Y-84565000D01*
X161944999Y-84565000D01*
X161944999Y-84558417D01*
X161938591Y-84487897D01*
X161938590Y-84487892D01*
X161888018Y-84325603D01*
X161800072Y-84180122D01*
X161679877Y-84059927D01*
X161534395Y-83971980D01*
X161534396Y-83971980D01*
X161372105Y-83921409D01*
X161372106Y-83921409D01*
X161301572Y-83915000D01*
X161220000Y-83915000D01*
X161220000Y-84565000D01*
X160720000Y-84565000D01*
X160720000Y-83915000D01*
X160719999Y-83914999D01*
X160638417Y-83915000D01*
X160567897Y-83921408D01*
X160567892Y-83921409D01*
X160405603Y-83971981D01*
X160260124Y-84059926D01*
X160141877Y-84178173D01*
X160080554Y-84211657D01*
X160010862Y-84206673D01*
X159954929Y-84164801D01*
X159944184Y-84135993D01*
X159929999Y-84109999D01*
X159630473Y-83921409D01*
X159390000Y-83770000D01*
X159389998Y-83769999D01*
X159389996Y-83769999D01*
X157396114Y-83763217D01*
X157340243Y-83749703D01*
X157300302Y-83729353D01*
X157206524Y-83714500D01*
X157206519Y-83714500D01*
X157206044Y-83714500D01*
X156738611Y-83714501D01*
X156738611Y-83713613D01*
X156704353Y-83710473D01*
X155827720Y-83476201D01*
X155597299Y-83414623D01*
X155579384Y-83409835D01*
X155575000Y-83413682D01*
X155575000Y-85391036D01*
X155577166Y-85395003D01*
X155580000Y-85421361D01*
X155580000Y-85678638D01*
X155575000Y-85695665D01*
X155575000Y-87625000D01*
X155560000Y-87640000D01*
X155575000Y-87653090D01*
X155575000Y-87684999D01*
X155579131Y-87689130D01*
X155632100Y-87704684D01*
X155646595Y-87715574D01*
X156070667Y-88085673D01*
X156108233Y-88144585D01*
X156113133Y-88179305D01*
X156109999Y-90060000D01*
X156609999Y-90550000D01*
X158290000Y-90550000D01*
X158290001Y-90550000D01*
X158522391Y-90383452D01*
X158857468Y-90143314D01*
X158923424Y-90120263D01*
X158930013Y-90120104D01*
X162672761Y-90129850D01*
X162739746Y-90149709D01*
X162767017Y-90173661D01*
X163090808Y-90555569D01*
X163119147Y-90619434D01*
X163120224Y-90635141D01*
X163129759Y-92551705D01*
X163110409Y-92618842D01*
X163097514Y-92635733D01*
X162766899Y-92999411D01*
X162707238Y-93035775D01*
X162675146Y-93040000D01*
X159649999Y-93040000D01*
X159170001Y-93509998D01*
X159169999Y-93510002D01*
X159161973Y-95051159D01*
X159141940Y-95118095D01*
X159088898Y-95163574D01*
X159065386Y-95171445D01*
X158440005Y-95313197D01*
X158370273Y-95308819D01*
X158361444Y-95304601D01*
X158361238Y-95305060D01*
X158354396Y-95301980D01*
X158192105Y-95251409D01*
X158192106Y-95251409D01*
X158121572Y-95245000D01*
X158115000Y-95245000D01*
X158115000Y-97194999D01*
X158130000Y-97209999D01*
X158130000Y-97210000D01*
X158130004Y-97210003D01*
X158134352Y-97214351D01*
X158135484Y-97214684D01*
X158143631Y-97220394D01*
X158299647Y-97339356D01*
X158710042Y-97652282D01*
X158710781Y-97652845D01*
X158717582Y-97662100D01*
X158727389Y-97668084D01*
X158737899Y-97689747D01*
X158752156Y-97709147D01*
X158753657Y-97722226D01*
X158757888Y-97730945D01*
X158758711Y-97766230D01*
X158758502Y-97767971D01*
X158757596Y-97774185D01*
X158756392Y-97781190D01*
X158756379Y-97781415D01*
X158753568Y-97797828D01*
X158753566Y-97797842D01*
X158751995Y-97856298D01*
X158809714Y-98352086D01*
X158825246Y-98485500D01*
X159135309Y-101148878D01*
X159135682Y-101152558D01*
X159252321Y-102504499D01*
X159252321Y-102504500D01*
X159288141Y-102919695D01*
X159296790Y-102963502D01*
X159296794Y-102963516D01*
X159312817Y-103014625D01*
X159312820Y-103014633D01*
X159330731Y-103055540D01*
X159330733Y-103055545D01*
X159371877Y-103127145D01*
X159386062Y-103165145D01*
X159430000Y-103390003D01*
X159430002Y-103390010D01*
X159925254Y-105128244D01*
X159930000Y-105162221D01*
X159930000Y-105210000D01*
X160996988Y-105210000D01*
X160964075Y-105267007D01*
X160930000Y-105394174D01*
X160930000Y-105525826D01*
X160964075Y-105652993D01*
X160996988Y-105710000D01*
X159930001Y-105710000D01*
X159930001Y-106109986D01*
X159940494Y-106212697D01*
X159995641Y-106379119D01*
X159995643Y-106379124D01*
X160087684Y-106528345D01*
X160211654Y-106652315D01*
X160360875Y-106744356D01*
X160360880Y-106744358D01*
X160527302Y-106799505D01*
X160527309Y-106799506D01*
X160630019Y-106809999D01*
X161179999Y-106809999D01*
X161180000Y-106809998D01*
X161180000Y-105893012D01*
X161237007Y-105925925D01*
X161364174Y-105960000D01*
X161495826Y-105960000D01*
X161622993Y-105925925D01*
X161680000Y-105893012D01*
X161680000Y-106809999D01*
X161685688Y-106815687D01*
X161733356Y-106829684D01*
X161779111Y-106882488D01*
X161790317Y-106933724D01*
X161792890Y-108093728D01*
X161794013Y-108600242D01*
X161794069Y-108625225D01*
X161774533Y-108692308D01*
X161721831Y-108738180D01*
X161670069Y-108749500D01*
X155978751Y-108749500D01*
X155971264Y-108749274D01*
X155711339Y-108733551D01*
X155696475Y-108731746D01*
X155444034Y-108685485D01*
X155429494Y-108681901D01*
X155184480Y-108605551D01*
X155170480Y-108600242D01*
X154936444Y-108494911D01*
X154923185Y-108487952D01*
X154703556Y-108355182D01*
X154691233Y-108346676D01*
X154489207Y-108188398D01*
X154477999Y-108178468D01*
X154296531Y-107997000D01*
X154286601Y-107985792D01*
X154128323Y-107783766D01*
X154119821Y-107771449D01*
X153987044Y-107551808D01*
X153980091Y-107538562D01*
X153874755Y-107304516D01*
X153869448Y-107290519D01*
X153793096Y-107045498D01*
X153789514Y-107030965D01*
X153776775Y-106961452D01*
X153743253Y-106778524D01*
X153741448Y-106763660D01*
X153740280Y-106744358D01*
X153725726Y-106503736D01*
X153725500Y-106496249D01*
X153725500Y-105152557D01*
X153728662Y-102963502D01*
X153737925Y-96551582D01*
X156965001Y-96551582D01*
X156971408Y-96622102D01*
X156971409Y-96622107D01*
X157021981Y-96784396D01*
X157109927Y-96929877D01*
X157230122Y-97050072D01*
X157375604Y-97138019D01*
X157375603Y-97138019D01*
X157537894Y-97188590D01*
X157537893Y-97188590D01*
X157608408Y-97194998D01*
X157608426Y-97194999D01*
X157614999Y-97194998D01*
X157615000Y-97194998D01*
X157615000Y-96470000D01*
X156965001Y-96470000D01*
X156965001Y-96551582D01*
X153737925Y-96551582D01*
X153738883Y-95888427D01*
X156965000Y-95888427D01*
X156965000Y-95970000D01*
X157615000Y-95970000D01*
X157615000Y-95245000D01*
X157614999Y-95244999D01*
X157608436Y-95245000D01*
X157608417Y-95245001D01*
X157537897Y-95251408D01*
X157537892Y-95251409D01*
X157375603Y-95301981D01*
X157230122Y-95389927D01*
X157109927Y-95510122D01*
X157021980Y-95655604D01*
X156971409Y-95817893D01*
X156965000Y-95888427D01*
X153738883Y-95888427D01*
X153739545Y-95430000D01*
X153751662Y-87041582D01*
X154425001Y-87041582D01*
X154431408Y-87112102D01*
X154431409Y-87112107D01*
X154481981Y-87274396D01*
X154569927Y-87419877D01*
X154690122Y-87540072D01*
X154835604Y-87628019D01*
X154835603Y-87628019D01*
X154997894Y-87678590D01*
X154997893Y-87678590D01*
X155068408Y-87684998D01*
X155068426Y-87684999D01*
X155074999Y-87684998D01*
X155075000Y-87684998D01*
X155075000Y-86960000D01*
X154425001Y-86960000D01*
X154425001Y-87041582D01*
X153751662Y-87041582D01*
X153752620Y-86378427D01*
X154425000Y-86378427D01*
X154425000Y-86460000D01*
X155075000Y-86460000D01*
X155075000Y-85735000D01*
X155074999Y-85734999D01*
X155068436Y-85735000D01*
X155068417Y-85735001D01*
X154997897Y-85741408D01*
X154997892Y-85741409D01*
X154835603Y-85791981D01*
X154690122Y-85879927D01*
X154569927Y-86000122D01*
X154481980Y-86145604D01*
X154431409Y-86307893D01*
X154425000Y-86378427D01*
X153752620Y-86378427D01*
X153755013Y-84721582D01*
X154425001Y-84721582D01*
X154431408Y-84792102D01*
X154431409Y-84792107D01*
X154481981Y-84954396D01*
X154569927Y-85099877D01*
X154690122Y-85220072D01*
X154835604Y-85308019D01*
X154835603Y-85308019D01*
X154997894Y-85358590D01*
X154997893Y-85358590D01*
X155068408Y-85364998D01*
X155068426Y-85364999D01*
X155074999Y-85364998D01*
X155075000Y-85364998D01*
X155075000Y-84640000D01*
X154425001Y-84640000D01*
X154425001Y-84721582D01*
X153755013Y-84721582D01*
X153755971Y-84058427D01*
X154425000Y-84058427D01*
X154425000Y-84140000D01*
X155075000Y-84140000D01*
X155075000Y-83415000D01*
X155074999Y-83414999D01*
X155068436Y-83415000D01*
X155068417Y-83415001D01*
X154997897Y-83421408D01*
X154997892Y-83421409D01*
X154835603Y-83471981D01*
X154690122Y-83559927D01*
X154569927Y-83680122D01*
X154481980Y-83825604D01*
X154431409Y-83987893D01*
X154425000Y-84058427D01*
X153755971Y-84058427D01*
X153757274Y-83156030D01*
X153759302Y-83133898D01*
X153789516Y-82969022D01*
X153793095Y-82954505D01*
X153869451Y-82709471D01*
X153874753Y-82695489D01*
X153980095Y-82461430D01*
X153987040Y-82448197D01*
X154119826Y-82228542D01*
X154128313Y-82216246D01*
X154286608Y-82014198D01*
X154296523Y-82003007D01*
X154478007Y-81821523D01*
X154489198Y-81811608D01*
X154691246Y-81653313D01*
X154703542Y-81644826D01*
X154923197Y-81512040D01*
X154936430Y-81505095D01*
X155170489Y-81399753D01*
X155184471Y-81394451D01*
X155429505Y-81318095D01*
X155444026Y-81314515D01*
X155696476Y-81268252D01*
X155711333Y-81266449D01*
X155720685Y-81265882D01*
X155735310Y-81264998D01*
X155742398Y-81264773D01*
X161156992Y-81250500D01*
X164008788Y-81250500D01*
X164075827Y-81270185D01*
G37*
G04 #@! TD.AperFunction*
M02*
